<svg xmlns="http://www.w3.org/2000/svg" width="880" height="440" viewBox="0 0 880 440" role="img" aria-label="Daily candlestick chart of GitHub stars for Mukbeast4/go-mt5">
<rect width="880" height="440" rx="8" fill="#1a1a19"/>
<text x="24" y="42" font-family="system-ui, -apple-system, 'Segoe UI', sans-serif" font-size="13" fill="#c3c2b7">Mukbeast4/go-mt5 · Daily</text>
<text x="24" y="74" font-family="system-ui, -apple-system, 'Segoe UI', sans-serif"><tspan font-size="28" font-weight="600" fill="#ffffff">14</tspan><tspan dx="8" font-size="13" fill="#c3c2b7">stars</tspan></text>
<line x1="24.0" y1="390.0" x2="792.0" y2="390.0" stroke="#2c2c2a" stroke-width="1"/>
<text x="802.0" y="390.0" dy="0.35em" font-family="system-ui, -apple-system, 'Segoe UI', sans-serif" font-size="11" fill="#898781" style="font-variant-numeric: tabular-nums">0</text>
<line x1="24.0" y1="289.6" x2="792.0" y2="289.6" stroke="#2c2c2a" stroke-width="1"/>
<text x="802.0" y="289.6" dy="0.35em" font-family="system-ui, -apple-system, 'Segoe UI', sans-serif" font-size="11" fill="#898781" style="font-variant-numeric: tabular-nums">5</text>
<line x1="24.0" y1="189.2" x2="792.0" y2="189.2" stroke="#2c2c2a" stroke-width="1"/>
<text x="802.0" y="189.2" dy="0.35em" font-family="system-ui, -apple-system, 'Segoe UI', sans-serif" font-size="11" fill="#898781" style="font-variant-numeric: tabular-nums">10</text>
<line x1="24.0" y1="88.8" x2="792.0" y2="88.8" stroke="#2c2c2a" stroke-width="1"/>
<text x="802.0" y="88.8" dy="0.35em" font-family="system-ui, -apple-system, 'Segoe UI', sans-serif" font-size="11" fill="#898781" style="font-variant-numeric: tabular-nums">15</text>
<line x1="31.5" y1="369.9" x2="31.5" y2="369.9" stroke="#199e70" stroke-width="1"/>
<rect x="25.8" y="369.9" width="11.6" height="0.5" rx="1" fill="#1a1a19" stroke="#199e70" stroke-width="1.5"/>
<text x="31.5" y="408.0" text-anchor="middle" font-family="system-ui, -apple-system, 'Segoe UI', sans-serif" font-size="11" fill="#898781">Mar 26</text>
<line x1="46.6" y1="329.8" x2="46.6" y2="369.9" stroke="#199e70" stroke-width="1"/>
<rect x="40.8" y="330.5" width="11.6" height="38.7" rx="1" fill="#1a1a19" stroke="#199e70" stroke-width="1.5"/>
<line x1="61.6" y1="309.7" x2="61.6" y2="329.8" stroke="#199e70" stroke-width="1"/>
<rect x="55.9" y="310.4" width="11.6" height="18.6" rx="1" fill="#1a1a19" stroke="#199e70" stroke-width="1.5"/>
<line x1="76.7" y1="289.6" x2="76.7" y2="309.7" stroke="#199e70" stroke-width="1"/>
<rect x="70.9" y="290.4" width="11.6" height="18.6" rx="1" fill="#1a1a19" stroke="#199e70" stroke-width="1.5"/>
<line x1="91.8" y1="269.5" x2="91.8" y2="289.6" stroke="#199e70" stroke-width="1"/>
<rect x="86.0" y="270.3" width="11.6" height="18.6" rx="1" fill="#1a1a19" stroke="#199e70" stroke-width="1.5"/>
<line x1="106.8" y1="249.4" x2="106.8" y2="269.5" stroke="#199e70" stroke-width="1"/>
<rect x="101.0" y="250.2" width="11.6" height="18.6" rx="1" fill="#1a1a19" stroke="#199e70" stroke-width="1.5"/>
<line x1="121.9" y1="229.4" x2="121.9" y2="249.4" stroke="#199e70" stroke-width="1"/>
<rect x="116.1" y="230.1" width="11.6" height="18.6" rx="1" fill="#1a1a19" stroke="#199e70" stroke-width="1.5"/>
<line x1="136.9" y1="209.3" x2="136.9" y2="229.4" stroke="#199e70" stroke-width="1"/>
<rect x="131.2" y="210.0" width="11.6" height="18.6" rx="1" fill="#1a1a19" stroke="#199e70" stroke-width="1.5"/>
<line x1="152.0" y1="209.3" x2="152.0" y2="209.3" stroke="#199e70" stroke-width="1"/>
<rect x="146.2" y="209.3" width="11.6" height="0.5" rx="1" fill="#1a1a19" stroke="#199e70" stroke-width="1.5"/>
<line x1="167.1" y1="209.3" x2="167.1" y2="229.4" stroke="#d03b3b" stroke-width="1"/>
<rect x="160.5" y="209.3" width="13.1" height="20.1" rx="1" fill="#d03b3b"/>
<text x="167.1" y="408.0" text-anchor="middle" font-family="system-ui, -apple-system, 'Segoe UI', sans-serif" font-size="11" fill="#898781">Jul 29</text>
<line x1="182.1" y1="229.4" x2="182.1" y2="229.4" stroke="#199e70" stroke-width="1"/>
<rect x="176.3" y="229.4" width="11.6" height="0.5" rx="1" fill="#1a1a19" stroke="#199e70" stroke-width="1.5"/>
<line x1="197.2" y1="229.4" x2="197.2" y2="229.4" stroke="#199e70" stroke-width="1"/>
<rect x="191.4" y="229.4" width="11.6" height="0.5" rx="1" fill="#1a1a19" stroke="#199e70" stroke-width="1.5"/>
<line x1="212.2" y1="229.4" x2="212.2" y2="229.4" stroke="#199e70" stroke-width="1"/>
<rect x="206.5" y="229.4" width="11.6" height="0.5" rx="1" fill="#1a1a19" stroke="#199e70" stroke-width="1.5"/>
<line x1="227.3" y1="229.4" x2="227.3" y2="229.4" stroke="#199e70" stroke-width="1"/>
<rect x="221.5" y="229.4" width="11.6" height="0.5" rx="1" fill="#1a1a19" stroke="#199e70" stroke-width="1.5"/>
<line x1="242.4" y1="229.4" x2="242.4" y2="229.4" stroke="#199e70" stroke-width="1"/>
<rect x="236.6" y="229.4" width="11.6" height="0.5" rx="1" fill="#1a1a19" stroke="#199e70" stroke-width="1.5"/>
<line x1="257.4" y1="229.4" x2="257.4" y2="229.4" stroke="#199e70" stroke-width="1"/>
<rect x="251.6" y="229.4" width="11.6" height="0.5" rx="1" fill="#1a1a19" stroke="#199e70" stroke-width="1.5"/>
<line x1="272.5" y1="229.4" x2="272.5" y2="229.4" stroke="#199e70" stroke-width="1"/>
<rect x="266.7" y="229.4" width="11.6" height="0.5" rx="1" fill="#1a1a19" stroke="#199e70" stroke-width="1.5"/>
<line x1="287.5" y1="229.4" x2="287.5" y2="229.4" stroke="#199e70" stroke-width="1"/>
<rect x="281.8" y="229.4" width="11.6" height="0.5" rx="1" fill="#1a1a19" stroke="#199e70" stroke-width="1.5"/>
<line x1="302.6" y1="229.4" x2="302.6" y2="229.4" stroke="#199e70" stroke-width="1"/>
<rect x="296.8" y="229.4" width="11.6" height="0.5" rx="1" fill="#1a1a19" stroke="#199e70" stroke-width="1.5"/>
<text x="302.6" y="408.0" text-anchor="middle" font-family="system-ui, -apple-system, 'Segoe UI', sans-serif" font-size="11" fill="#898781">Aug 7</text>
<line x1="317.6" y1="229.4" x2="317.6" y2="229.4" stroke="#199e70" stroke-width="1"/>
<rect x="311.9" y="229.4" width="11.6" height="0.5" rx="1" fill="#1a1a19" stroke="#199e70" stroke-width="1.5"/>
<line x1="332.7" y1="229.4" x2="332.7" y2="229.4" stroke="#199e70" stroke-width="1"/>
<rect x="326.9" y="229.4" width="11.6" height="0.5" rx="1" fill="#1a1a19" stroke="#199e70" stroke-width="1.5"/>
<line x1="347.8" y1="229.4" x2="347.8" y2="229.4" stroke="#199e70" stroke-width="1"/>
<rect x="342.0" y="229.4" width="11.6" height="0.5" rx="1" fill="#1a1a19" stroke="#199e70" stroke-width="1.5"/>
<line x1="362.8" y1="229.4" x2="362.8" y2="229.4" stroke="#199e70" stroke-width="1"/>
<rect x="357.0" y="229.4" width="11.6" height="0.5" rx="1" fill="#1a1a19" stroke="#199e70" stroke-width="1.5"/>
<line x1="377.9" y1="229.4" x2="377.9" y2="229.4" stroke="#199e70" stroke-width="1"/>
<rect x="372.1" y="229.4" width="11.6" height="0.5" rx="1" fill="#1a1a19" stroke="#199e70" stroke-width="1.5"/>
<line x1="392.9" y1="229.4" x2="392.9" y2="229.4" stroke="#199e70" stroke-width="1"/>
<rect x="387.2" y="229.4" width="11.6" height="0.5" rx="1" fill="#1a1a19" stroke="#199e70" stroke-width="1.5"/>
<line x1="408.0" y1="229.4" x2="408.0" y2="229.4" stroke="#199e70" stroke-width="1"/>
<rect x="402.2" y="229.4" width="11.6" height="0.5" rx="1" fill="#1a1a19" stroke="#199e70" stroke-width="1.5"/>
<line x1="423.1" y1="229.4" x2="423.1" y2="229.4" stroke="#199e70" stroke-width="1"/>
<rect x="417.3" y="229.4" width="11.6" height="0.5" rx="1" fill="#1a1a19" stroke="#199e70" stroke-width="1.5"/>
<line x1="438.1" y1="229.4" x2="438.1" y2="229.4" stroke="#199e70" stroke-width="1"/>
<rect x="432.3" y="229.4" width="11.6" height="0.5" rx="1" fill="#1a1a19" stroke="#199e70" stroke-width="1.5"/>
<text x="438.1" y="408.0" text-anchor="middle" font-family="system-ui, -apple-system, 'Segoe UI', sans-serif" font-size="11" fill="#898781">Aug 16</text>
<line x1="453.2" y1="229.4" x2="453.2" y2="229.4" stroke="#199e70" stroke-width="1"/>
<rect x="447.4" y="229.4" width="11.6" height="0.5" rx="1" fill="#1a1a19" stroke="#199e70" stroke-width="1.5"/>
<line x1="468.2" y1="209.3" x2="468.2" y2="229.4" stroke="#199e70" stroke-width="1"/>
<rect x="462.5" y="210.0" width="11.6" height="18.6" rx="1" fill="#1a1a19" stroke="#199e70" stroke-width="1.5"/>
<line x1="483.3" y1="209.3" x2="483.3" y2="209.3" stroke="#199e70" stroke-width="1"/>
<rect x="477.5" y="209.3" width="11.6" height="0.5" rx="1" fill="#1a1a19" stroke="#199e70" stroke-width="1.5"/>
<line x1="498.4" y1="209.3" x2="498.4" y2="209.3" stroke="#199e70" stroke-width="1"/>
<rect x="492.6" y="209.3" width="11.6" height="0.5" rx="1" fill="#1a1a19" stroke="#199e70" stroke-width="1.5"/>
<line x1="513.4" y1="209.3" x2="513.4" y2="209.3" stroke="#199e70" stroke-width="1"/>
<rect x="507.6" y="209.3" width="11.6" height="0.5" rx="1" fill="#1a1a19" stroke="#199e70" stroke-width="1.5"/>
<line x1="528.5" y1="209.3" x2="528.5" y2="209.3" stroke="#199e70" stroke-width="1"/>
<rect x="522.7" y="209.3" width="11.6" height="0.5" rx="1" fill="#1a1a19" stroke="#199e70" stroke-width="1.5"/>
<line x1="543.5" y1="189.2" x2="543.5" y2="209.3" stroke="#199e70" stroke-width="1"/>
<rect x="537.8" y="190.0" width="11.6" height="18.6" rx="1" fill="#1a1a19" stroke="#199e70" stroke-width="1.5"/>
<line x1="558.6" y1="149.0" x2="558.6" y2="189.2" stroke="#199e70" stroke-width="1"/>
<rect x="552.8" y="149.8" width="11.6" height="38.7" rx="1" fill="#1a1a19" stroke="#199e70" stroke-width="1.5"/>
<line x1="573.6" y1="149.0" x2="573.6" y2="149.0" stroke="#199e70" stroke-width="1"/>
<rect x="567.9" y="149.0" width="11.6" height="0.5" rx="1" fill="#1a1a19" stroke="#199e70" stroke-width="1.5"/>
<text x="573.6" y="408.0" text-anchor="middle" font-family="system-ui, -apple-system, 'Segoe UI', sans-serif" font-size="11" fill="#898781">Aug 25</text>
<line x1="588.7" y1="149.0" x2="588.7" y2="149.0" stroke="#199e70" stroke-width="1"/>
<rect x="582.9" y="149.0" width="11.6" height="0.5" rx="1" fill="#1a1a19" stroke="#199e70" stroke-width="1.5"/>
<line x1="603.8" y1="129.0" x2="603.8" y2="149.0" stroke="#199e70" stroke-width="1"/>
<rect x="598.0" y="129.7" width="11.6" height="18.6" rx="1" fill="#1a1a19" stroke="#199e70" stroke-width="1.5"/>
<line x1="618.8" y1="129.0" x2="618.8" y2="129.0" stroke="#199e70" stroke-width="1"/>
<rect x="613.0" y="129.0" width="11.6" height="0.5" rx="1" fill="#1a1a19" stroke="#199e70" stroke-width="1.5"/>
<line x1="633.9" y1="129.0" x2="633.9" y2="129.0" stroke="#199e70" stroke-width="1"/>
<rect x="628.1" y="129.0" width="11.6" height="0.5" rx="1" fill="#1a1a19" stroke="#199e70" stroke-width="1.5"/>
<line x1="648.9" y1="129.0" x2="648.9" y2="129.0" stroke="#199e70" stroke-width="1"/>
<rect x="643.2" y="129.0" width="11.6" height="0.5" rx="1" fill="#1a1a19" stroke="#199e70" stroke-width="1.5"/>
<line x1="664.0" y1="129.0" x2="664.0" y2="129.0" stroke="#199e70" stroke-width="1"/>
<rect x="658.2" y="129.0" width="11.6" height="0.5" rx="1" fill="#1a1a19" stroke="#199e70" stroke-width="1.5"/>
<line x1="679.1" y1="129.0" x2="679.1" y2="129.0" stroke="#199e70" stroke-width="1"/>
<rect x="673.3" y="129.0" width="11.6" height="0.5" rx="1" fill="#1a1a19" stroke="#199e70" stroke-width="1.5"/>
<line x1="694.1" y1="129.0" x2="694.1" y2="129.0" stroke="#199e70" stroke-width="1"/>
<rect x="688.3" y="129.0" width="11.6" height="0.5" rx="1" fill="#1a1a19" stroke="#199e70" stroke-width="1.5"/>
<line x1="709.2" y1="129.0" x2="709.2" y2="129.0" stroke="#199e70" stroke-width="1"/>
<rect x="703.4" y="129.0" width="11.6" height="0.5" rx="1" fill="#1a1a19" stroke="#199e70" stroke-width="1.5"/>
<text x="709.2" y="408.0" text-anchor="middle" font-family="system-ui, -apple-system, 'Segoe UI', sans-serif" font-size="11" fill="#898781">Sep 3</text>
<line x1="724.2" y1="129.0" x2="724.2" y2="129.0" stroke="#199e70" stroke-width="1"/>
<rect x="718.5" y="129.0" width="11.6" height="0.5" rx="1" fill="#1a1a19" stroke="#199e70" stroke-width="1.5"/>
<line x1="739.3" y1="129.0" x2="739.3" y2="129.0" stroke="#199e70" stroke-width="1"/>
<rect x="733.5" y="129.0" width="11.6" height="0.5" rx="1" fill="#1a1a19" stroke="#199e70" stroke-width="1.5"/>
<line x1="754.4" y1="129.0" x2="754.4" y2="129.0" stroke="#199e70" stroke-width="1"/>
<rect x="748.6" y="129.0" width="11.6" height="0.5" rx="1" fill="#1a1a19" stroke="#199e70" stroke-width="1.5"/>
<line x1="769.4" y1="108.9" x2="769.4" y2="129.0" stroke="#199e70" stroke-width="1"/>
<rect x="763.6" y="109.6" width="11.6" height="18.6" rx="1" fill="#1a1a19" stroke="#199e70" stroke-width="1.5"/>
<line x1="784.5" y1="108.9" x2="784.5" y2="108.9" stroke="#199e70" stroke-width="1"/>
<rect x="778.7" y="108.9" width="11.6" height="0.5" rx="1" fill="#1a1a19" stroke="#199e70" stroke-width="1.5"/>
<rect x="0.5" y="0.5" width="879" height="439" rx="8" fill="none" stroke="rgba(255,255,255,0.10)"/>
</svg>
