<svg xmlns="http://www.w3.org/2000/svg" width="880" height="440" viewBox="0 0 880 440" role="img" aria-label="Daily candlestick chart of GitHub stars for Mukbeast4/go-mt5">
<rect width="880" height="440" rx="8" fill="#fcfcfb"/>
<text x="24" y="42" font-family="system-ui, -apple-system, 'Segoe UI', sans-serif" font-size="13" fill="#52514e">Mukbeast4/go-mt5 · Daily</text>
<text x="24" y="74" font-family="system-ui, -apple-system, 'Segoe UI', sans-serif"><tspan font-size="28" font-weight="600" fill="#0b0b0b">16</tspan><tspan dx="8" font-size="13" fill="#52514e">stars</tspan></text>
<line x1="24.0" y1="390.0" x2="792.0" y2="390.0" stroke="#e1e0d9" stroke-width="1"/>
<text x="802.0" y="390.0" dy="0.35em" font-family="system-ui, -apple-system, 'Segoe UI', sans-serif" font-size="11" fill="#898781" style="font-variant-numeric: tabular-nums">0</text>
<line x1="24.0" y1="302.2" x2="792.0" y2="302.2" stroke="#e1e0d9" stroke-width="1"/>
<text x="802.0" y="302.2" dy="0.35em" font-family="system-ui, -apple-system, 'Segoe UI', sans-serif" font-size="11" fill="#898781" style="font-variant-numeric: tabular-nums">5</text>
<line x1="24.0" y1="214.4" x2="792.0" y2="214.4" stroke="#e1e0d9" stroke-width="1"/>
<text x="802.0" y="214.4" dy="0.35em" font-family="system-ui, -apple-system, 'Segoe UI', sans-serif" font-size="11" fill="#898781" style="font-variant-numeric: tabular-nums">10</text>
<line x1="24.0" y1="126.6" x2="792.0" y2="126.6" stroke="#e1e0d9" stroke-width="1"/>
<text x="802.0" y="126.6" dy="0.35em" font-family="system-ui, -apple-system, 'Segoe UI', sans-serif" font-size="11" fill="#898781" style="font-variant-numeric: tabular-nums">15</text>
<line x1="29.1" y1="372.4" x2="29.1" y2="372.4" stroke="#199e70" stroke-width="1"/>
<rect x="25.8" y="372.4" width="6.6" height="0.5" rx="1" fill="#fcfcfb" stroke="#199e70" stroke-width="1.5"/>
<text x="29.1" y="408.0" text-anchor="middle" font-family="system-ui, -apple-system, 'Segoe UI', sans-serif" font-size="11" fill="#898781">Mar 26</text>
<line x1="39.2" y1="337.3" x2="39.2" y2="372.4" stroke="#199e70" stroke-width="1"/>
<rect x="35.9" y="338.1" width="6.6" height="33.6" rx="1" fill="#fcfcfb" stroke="#199e70" stroke-width="1.5"/>
<line x1="49.3" y1="319.8" x2="49.3" y2="337.3" stroke="#199e70" stroke-width="1"/>
<rect x="46.0" y="320.5" width="6.6" height="16.1" rx="1" fill="#fcfcfb" stroke="#199e70" stroke-width="1.5"/>
<line x1="59.4" y1="302.2" x2="59.4" y2="319.8" stroke="#199e70" stroke-width="1"/>
<rect x="56.1" y="303.0" width="6.6" height="16.1" rx="1" fill="#fcfcfb" stroke="#199e70" stroke-width="1.5"/>
<line x1="69.5" y1="284.7" x2="69.5" y2="302.2" stroke="#199e70" stroke-width="1"/>
<rect x="66.2" y="285.4" width="6.6" height="16.1" rx="1" fill="#fcfcfb" stroke="#199e70" stroke-width="1.5"/>
<line x1="79.6" y1="267.1" x2="79.6" y2="284.7" stroke="#199e70" stroke-width="1"/>
<rect x="76.3" y="267.8" width="6.6" height="16.1" rx="1" fill="#fcfcfb" stroke="#199e70" stroke-width="1.5"/>
<line x1="89.7" y1="249.5" x2="89.7" y2="267.1" stroke="#199e70" stroke-width="1"/>
<rect x="86.4" y="250.3" width="6.6" height="16.1" rx="1" fill="#fcfcfb" stroke="#199e70" stroke-width="1.5"/>
<line x1="99.8" y1="232.0" x2="99.8" y2="249.5" stroke="#199e70" stroke-width="1"/>
<rect x="96.5" y="232.7" width="6.6" height="16.1" rx="1" fill="#fcfcfb" stroke="#199e70" stroke-width="1.5"/>
<line x1="109.9" y1="232.0" x2="109.9" y2="232.0" stroke="#199e70" stroke-width="1"/>
<rect x="106.6" y="232.0" width="6.6" height="0.5" rx="1" fill="#fcfcfb" stroke="#199e70" stroke-width="1.5"/>
<line x1="120.0" y1="232.0" x2="120.0" y2="249.5" stroke="#d03b3b" stroke-width="1"/>
<rect x="115.9" y="232.0" width="8.1" height="17.6" rx="1" fill="#d03b3b"/>
<line x1="130.1" y1="249.5" x2="130.1" y2="249.5" stroke="#199e70" stroke-width="1"/>
<rect x="126.8" y="249.5" width="6.6" height="0.5" rx="1" fill="#fcfcfb" stroke="#199e70" stroke-width="1.5"/>
<line x1="140.2" y1="249.5" x2="140.2" y2="249.5" stroke="#199e70" stroke-width="1"/>
<rect x="136.9" y="249.5" width="6.6" height="0.5" rx="1" fill="#fcfcfb" stroke="#199e70" stroke-width="1.5"/>
<line x1="150.3" y1="249.5" x2="150.3" y2="249.5" stroke="#199e70" stroke-width="1"/>
<rect x="147.0" y="249.5" width="6.6" height="0.5" rx="1" fill="#fcfcfb" stroke="#199e70" stroke-width="1.5"/>
<line x1="160.4" y1="249.5" x2="160.4" y2="249.5" stroke="#199e70" stroke-width="1"/>
<rect x="157.1" y="249.5" width="6.6" height="0.5" rx="1" fill="#fcfcfb" stroke="#199e70" stroke-width="1.5"/>
<text x="160.4" y="408.0" text-anchor="middle" font-family="system-ui, -apple-system, 'Segoe UI', sans-serif" font-size="11" fill="#898781">Aug 2</text>
<line x1="170.5" y1="249.5" x2="170.5" y2="249.5" stroke="#199e70" stroke-width="1"/>
<rect x="167.2" y="249.5" width="6.6" height="0.5" rx="1" fill="#fcfcfb" stroke="#199e70" stroke-width="1.5"/>
<line x1="180.6" y1="249.5" x2="180.6" y2="249.5" stroke="#199e70" stroke-width="1"/>
<rect x="177.3" y="249.5" width="6.6" height="0.5" rx="1" fill="#fcfcfb" stroke="#199e70" stroke-width="1.5"/>
<line x1="190.7" y1="249.5" x2="190.7" y2="249.5" stroke="#199e70" stroke-width="1"/>
<rect x="187.4" y="249.5" width="6.6" height="0.5" rx="1" fill="#fcfcfb" stroke="#199e70" stroke-width="1.5"/>
<line x1="200.8" y1="249.5" x2="200.8" y2="249.5" stroke="#199e70" stroke-width="1"/>
<rect x="197.5" y="249.5" width="6.6" height="0.5" rx="1" fill="#fcfcfb" stroke="#199e70" stroke-width="1.5"/>
<line x1="210.9" y1="249.5" x2="210.9" y2="249.5" stroke="#199e70" stroke-width="1"/>
<rect x="207.6" y="249.5" width="6.6" height="0.5" rx="1" fill="#fcfcfb" stroke="#199e70" stroke-width="1.5"/>
<line x1="221.1" y1="249.5" x2="221.1" y2="249.5" stroke="#199e70" stroke-width="1"/>
<rect x="217.8" y="249.5" width="6.6" height="0.5" rx="1" fill="#fcfcfb" stroke="#199e70" stroke-width="1.5"/>
<line x1="231.2" y1="249.5" x2="231.2" y2="249.5" stroke="#199e70" stroke-width="1"/>
<rect x="227.9" y="249.5" width="6.6" height="0.5" rx="1" fill="#fcfcfb" stroke="#199e70" stroke-width="1.5"/>
<line x1="241.3" y1="249.5" x2="241.3" y2="249.5" stroke="#199e70" stroke-width="1"/>
<rect x="238.0" y="249.5" width="6.6" height="0.5" rx="1" fill="#fcfcfb" stroke="#199e70" stroke-width="1.5"/>
<line x1="251.4" y1="249.5" x2="251.4" y2="249.5" stroke="#199e70" stroke-width="1"/>
<rect x="248.1" y="249.5" width="6.6" height="0.5" rx="1" fill="#fcfcfb" stroke="#199e70" stroke-width="1.5"/>
<line x1="261.5" y1="249.5" x2="261.5" y2="249.5" stroke="#199e70" stroke-width="1"/>
<rect x="258.2" y="249.5" width="6.6" height="0.5" rx="1" fill="#fcfcfb" stroke="#199e70" stroke-width="1.5"/>
<line x1="271.6" y1="249.5" x2="271.6" y2="249.5" stroke="#199e70" stroke-width="1"/>
<rect x="268.3" y="249.5" width="6.6" height="0.5" rx="1" fill="#fcfcfb" stroke="#199e70" stroke-width="1.5"/>
<line x1="281.7" y1="249.5" x2="281.7" y2="249.5" stroke="#199e70" stroke-width="1"/>
<rect x="278.4" y="249.5" width="6.6" height="0.5" rx="1" fill="#fcfcfb" stroke="#199e70" stroke-width="1.5"/>
<line x1="291.8" y1="249.5" x2="291.8" y2="249.5" stroke="#199e70" stroke-width="1"/>
<rect x="288.5" y="249.5" width="6.6" height="0.5" rx="1" fill="#fcfcfb" stroke="#199e70" stroke-width="1.5"/>
<text x="291.8" y="408.0" text-anchor="middle" font-family="system-ui, -apple-system, 'Segoe UI', sans-serif" font-size="11" fill="#898781">Aug 15</text>
<line x1="301.9" y1="249.5" x2="301.9" y2="249.5" stroke="#199e70" stroke-width="1"/>
<rect x="298.6" y="249.5" width="6.6" height="0.5" rx="1" fill="#fcfcfb" stroke="#199e70" stroke-width="1.5"/>
<line x1="312.0" y1="249.5" x2="312.0" y2="249.5" stroke="#199e70" stroke-width="1"/>
<rect x="308.7" y="249.5" width="6.6" height="0.5" rx="1" fill="#fcfcfb" stroke="#199e70" stroke-width="1.5"/>
<line x1="322.1" y1="232.0" x2="322.1" y2="249.5" stroke="#199e70" stroke-width="1"/>
<rect x="318.8" y="232.7" width="6.6" height="16.1" rx="1" fill="#fcfcfb" stroke="#199e70" stroke-width="1.5"/>
<line x1="332.2" y1="232.0" x2="332.2" y2="232.0" stroke="#199e70" stroke-width="1"/>
<rect x="328.9" y="232.0" width="6.6" height="0.5" rx="1" fill="#fcfcfb" stroke="#199e70" stroke-width="1.5"/>
<line x1="342.3" y1="232.0" x2="342.3" y2="232.0" stroke="#199e70" stroke-width="1"/>
<rect x="339.0" y="232.0" width="6.6" height="0.5" rx="1" fill="#fcfcfb" stroke="#199e70" stroke-width="1.5"/>
<line x1="352.4" y1="232.0" x2="352.4" y2="232.0" stroke="#199e70" stroke-width="1"/>
<rect x="349.1" y="232.0" width="6.6" height="0.5" rx="1" fill="#fcfcfb" stroke="#199e70" stroke-width="1.5"/>
<line x1="362.5" y1="232.0" x2="362.5" y2="232.0" stroke="#199e70" stroke-width="1"/>
<rect x="359.2" y="232.0" width="6.6" height="0.5" rx="1" fill="#fcfcfb" stroke="#199e70" stroke-width="1.5"/>
<line x1="372.6" y1="214.4" x2="372.6" y2="232.0" stroke="#199e70" stroke-width="1"/>
<rect x="369.3" y="215.2" width="6.6" height="16.1" rx="1" fill="#fcfcfb" stroke="#199e70" stroke-width="1.5"/>
<line x1="382.7" y1="179.3" x2="382.7" y2="214.4" stroke="#199e70" stroke-width="1"/>
<rect x="379.4" y="180.1" width="6.6" height="33.6" rx="1" fill="#fcfcfb" stroke="#199e70" stroke-width="1.5"/>
<line x1="392.8" y1="179.3" x2="392.8" y2="179.3" stroke="#199e70" stroke-width="1"/>
<rect x="389.5" y="179.3" width="6.6" height="0.5" rx="1" fill="#fcfcfb" stroke="#199e70" stroke-width="1.5"/>
<line x1="402.9" y1="179.3" x2="402.9" y2="179.3" stroke="#199e70" stroke-width="1"/>
<rect x="399.6" y="179.3" width="6.6" height="0.5" rx="1" fill="#fcfcfb" stroke="#199e70" stroke-width="1.5"/>
<line x1="413.1" y1="161.7" x2="413.1" y2="179.3" stroke="#199e70" stroke-width="1"/>
<rect x="409.8" y="162.5" width="6.6" height="16.1" rx="1" fill="#fcfcfb" stroke="#199e70" stroke-width="1.5"/>
<line x1="423.2" y1="161.7" x2="423.2" y2="161.7" stroke="#199e70" stroke-width="1"/>
<rect x="419.9" y="161.7" width="6.6" height="0.5" rx="1" fill="#fcfcfb" stroke="#199e70" stroke-width="1.5"/>
<text x="423.2" y="408.0" text-anchor="middle" font-family="system-ui, -apple-system, 'Segoe UI', sans-serif" font-size="11" fill="#898781">Aug 28</text>
<line x1="433.3" y1="161.7" x2="433.3" y2="161.7" stroke="#199e70" stroke-width="1"/>
<rect x="430.0" y="161.7" width="6.6" height="0.5" rx="1" fill="#fcfcfb" stroke="#199e70" stroke-width="1.5"/>
<line x1="443.4" y1="161.7" x2="443.4" y2="161.7" stroke="#199e70" stroke-width="1"/>
<rect x="440.1" y="161.7" width="6.6" height="0.5" rx="1" fill="#fcfcfb" stroke="#199e70" stroke-width="1.5"/>
<line x1="453.5" y1="161.7" x2="453.5" y2="161.7" stroke="#199e70" stroke-width="1"/>
<rect x="450.2" y="161.7" width="6.6" height="0.5" rx="1" fill="#fcfcfb" stroke="#199e70" stroke-width="1.5"/>
<line x1="463.6" y1="161.7" x2="463.6" y2="161.7" stroke="#199e70" stroke-width="1"/>
<rect x="460.3" y="161.7" width="6.6" height="0.5" rx="1" fill="#fcfcfb" stroke="#199e70" stroke-width="1.5"/>
<line x1="473.7" y1="161.7" x2="473.7" y2="161.7" stroke="#199e70" stroke-width="1"/>
<rect x="470.4" y="161.7" width="6.6" height="0.5" rx="1" fill="#fcfcfb" stroke="#199e70" stroke-width="1.5"/>
<line x1="483.8" y1="161.7" x2="483.8" y2="161.7" stroke="#199e70" stroke-width="1"/>
<rect x="480.5" y="161.7" width="6.6" height="0.5" rx="1" fill="#fcfcfb" stroke="#199e70" stroke-width="1.5"/>
<line x1="493.9" y1="161.7" x2="493.9" y2="161.7" stroke="#199e70" stroke-width="1"/>
<rect x="490.6" y="161.7" width="6.6" height="0.5" rx="1" fill="#fcfcfb" stroke="#199e70" stroke-width="1.5"/>
<line x1="504.0" y1="161.7" x2="504.0" y2="161.7" stroke="#199e70" stroke-width="1"/>
<rect x="500.7" y="161.7" width="6.6" height="0.5" rx="1" fill="#fcfcfb" stroke="#199e70" stroke-width="1.5"/>
<line x1="514.1" y1="161.7" x2="514.1" y2="161.7" stroke="#199e70" stroke-width="1"/>
<rect x="510.8" y="161.7" width="6.6" height="0.5" rx="1" fill="#fcfcfb" stroke="#199e70" stroke-width="1.5"/>
<line x1="524.2" y1="144.2" x2="524.2" y2="161.7" stroke="#199e70" stroke-width="1"/>
<rect x="520.9" y="144.9" width="6.6" height="16.1" rx="1" fill="#fcfcfb" stroke="#199e70" stroke-width="1.5"/>
<line x1="534.3" y1="144.2" x2="534.3" y2="144.2" stroke="#199e70" stroke-width="1"/>
<rect x="531.0" y="144.2" width="6.6" height="0.5" rx="1" fill="#fcfcfb" stroke="#199e70" stroke-width="1.5"/>
<line x1="544.4" y1="144.2" x2="544.4" y2="144.2" stroke="#199e70" stroke-width="1"/>
<rect x="541.1" y="144.2" width="6.6" height="0.5" rx="1" fill="#fcfcfb" stroke="#199e70" stroke-width="1.5"/>
<line x1="554.5" y1="144.2" x2="554.5" y2="144.2" stroke="#199e70" stroke-width="1"/>
<rect x="551.2" y="144.2" width="6.6" height="0.5" rx="1" fill="#fcfcfb" stroke="#199e70" stroke-width="1.5"/>
<text x="554.5" y="408.0" text-anchor="middle" font-family="system-ui, -apple-system, 'Segoe UI', sans-serif" font-size="11" fill="#898781">Sep 10</text>
<line x1="564.6" y1="144.2" x2="564.6" y2="144.2" stroke="#199e70" stroke-width="1"/>
<rect x="561.3" y="144.2" width="6.6" height="0.5" rx="1" fill="#fcfcfb" stroke="#199e70" stroke-width="1.5"/>
<line x1="574.7" y1="144.2" x2="574.7" y2="144.2" stroke="#199e70" stroke-width="1"/>
<rect x="571.4" y="144.2" width="6.6" height="0.5" rx="1" fill="#fcfcfb" stroke="#199e70" stroke-width="1.5"/>
<line x1="584.8" y1="144.2" x2="584.8" y2="144.2" stroke="#199e70" stroke-width="1"/>
<rect x="581.5" y="144.2" width="6.6" height="0.5" rx="1" fill="#fcfcfb" stroke="#199e70" stroke-width="1.5"/>
<line x1="594.9" y1="144.2" x2="594.9" y2="144.2" stroke="#199e70" stroke-width="1"/>
<rect x="591.6" y="144.2" width="6.6" height="0.5" rx="1" fill="#fcfcfb" stroke="#199e70" stroke-width="1.5"/>
<line x1="605.1" y1="144.2" x2="605.1" y2="144.2" stroke="#199e70" stroke-width="1"/>
<rect x="601.7" y="144.2" width="6.6" height="0.5" rx="1" fill="#fcfcfb" stroke="#199e70" stroke-width="1.5"/>
<line x1="615.2" y1="144.2" x2="615.2" y2="144.2" stroke="#199e70" stroke-width="1"/>
<rect x="611.9" y="144.2" width="6.6" height="0.5" rx="1" fill="#fcfcfb" stroke="#199e70" stroke-width="1.5"/>
<line x1="625.3" y1="144.2" x2="625.3" y2="144.2" stroke="#199e70" stroke-width="1"/>
<rect x="622.0" y="144.2" width="6.6" height="0.5" rx="1" fill="#fcfcfb" stroke="#199e70" stroke-width="1.5"/>
<line x1="635.4" y1="144.2" x2="635.4" y2="144.2" stroke="#199e70" stroke-width="1"/>
<rect x="632.1" y="144.2" width="6.6" height="0.5" rx="1" fill="#fcfcfb" stroke="#199e70" stroke-width="1.5"/>
<line x1="645.5" y1="126.6" x2="645.5" y2="144.2" stroke="#199e70" stroke-width="1"/>
<rect x="642.2" y="127.4" width="6.6" height="16.1" rx="1" fill="#fcfcfb" stroke="#199e70" stroke-width="1.5"/>
<line x1="655.6" y1="109.1" x2="655.6" y2="126.6" stroke="#199e70" stroke-width="1"/>
<rect x="652.3" y="109.8" width="6.6" height="16.1" rx="1" fill="#fcfcfb" stroke="#199e70" stroke-width="1.5"/>
<line x1="665.7" y1="109.1" x2="665.7" y2="109.1" stroke="#199e70" stroke-width="1"/>
<rect x="662.4" y="109.1" width="6.6" height="0.5" rx="1" fill="#fcfcfb" stroke="#199e70" stroke-width="1.5"/>
<line x1="675.8" y1="109.1" x2="675.8" y2="109.1" stroke="#199e70" stroke-width="1"/>
<rect x="672.5" y="109.1" width="6.6" height="0.5" rx="1" fill="#fcfcfb" stroke="#199e70" stroke-width="1.5"/>
<line x1="685.9" y1="109.1" x2="685.9" y2="109.1" stroke="#199e70" stroke-width="1"/>
<rect x="682.6" y="109.1" width="6.6" height="0.5" rx="1" fill="#fcfcfb" stroke="#199e70" stroke-width="1.5"/>
<text x="685.9" y="408.0" text-anchor="middle" font-family="system-ui, -apple-system, 'Segoe UI', sans-serif" font-size="11" fill="#898781">Sep 23</text>
<line x1="696.0" y1="109.1" x2="696.0" y2="109.1" stroke="#199e70" stroke-width="1"/>
<rect x="692.7" y="109.1" width="6.6" height="0.5" rx="1" fill="#fcfcfb" stroke="#199e70" stroke-width="1.5"/>
<line x1="706.1" y1="109.1" x2="706.1" y2="109.1" stroke="#199e70" stroke-width="1"/>
<rect x="702.8" y="109.1" width="6.6" height="0.5" rx="1" fill="#fcfcfb" stroke="#199e70" stroke-width="1.5"/>
<line x1="716.2" y1="109.1" x2="716.2" y2="109.1" stroke="#199e70" stroke-width="1"/>
<rect x="712.9" y="109.1" width="6.6" height="0.5" rx="1" fill="#fcfcfb" stroke="#199e70" stroke-width="1.5"/>
<line x1="726.3" y1="109.1" x2="726.3" y2="109.1" stroke="#199e70" stroke-width="1"/>
<rect x="723.0" y="109.1" width="6.6" height="0.5" rx="1" fill="#fcfcfb" stroke="#199e70" stroke-width="1.5"/>
<line x1="736.4" y1="109.1" x2="736.4" y2="109.1" stroke="#199e70" stroke-width="1"/>
<rect x="733.1" y="109.1" width="6.6" height="0.5" rx="1" fill="#fcfcfb" stroke="#199e70" stroke-width="1.5"/>
<line x1="746.5" y1="109.1" x2="746.5" y2="109.1" stroke="#199e70" stroke-width="1"/>
<rect x="743.2" y="109.1" width="6.6" height="0.5" rx="1" fill="#fcfcfb" stroke="#199e70" stroke-width="1.5"/>
<line x1="756.6" y1="109.1" x2="756.6" y2="109.1" stroke="#199e70" stroke-width="1"/>
<rect x="753.3" y="109.1" width="6.6" height="0.5" rx="1" fill="#fcfcfb" stroke="#199e70" stroke-width="1.5"/>
<line x1="766.7" y1="109.1" x2="766.7" y2="109.1" stroke="#199e70" stroke-width="1"/>
<rect x="763.4" y="109.1" width="6.6" height="0.5" rx="1" fill="#fcfcfb" stroke="#199e70" stroke-width="1.5"/>
<line x1="776.8" y1="109.1" x2="776.8" y2="109.1" stroke="#199e70" stroke-width="1"/>
<rect x="773.5" y="109.1" width="6.6" height="0.5" rx="1" fill="#fcfcfb" stroke="#199e70" stroke-width="1.5"/>
<line x1="786.9" y1="109.1" x2="786.9" y2="109.1" stroke="#199e70" stroke-width="1"/>
<rect x="783.6" y="109.1" width="6.6" height="0.5" rx="1" fill="#fcfcfb" stroke="#199e70" stroke-width="1.5"/>
<rect x="0.5" y="0.5" width="879" height="439" rx="8" fill="none" stroke="rgba(11,11,11,0.10)"/>
</svg>
