<svg xmlns="http://www.w3.org/2000/svg" width="880" height="440" viewBox="0 0 880 440" role="img" aria-label="Daily candlestick chart of GitHub stars for Mukbeast4/go-mt5">
<rect width="880" height="440" rx="8" fill="#fcfcfb"/>
<text x="24" y="42" font-family="system-ui, -apple-system, 'Segoe UI', sans-serif" font-size="13" fill="#52514e">Mukbeast4/go-mt5 · Daily</text>
<text x="24" y="74" font-family="system-ui, -apple-system, 'Segoe UI', sans-serif"><tspan font-size="28" font-weight="600" fill="#0b0b0b">13</tspan><tspan dx="8" font-size="13" fill="#52514e">stars</tspan></text>
<line x1="24.0" y1="390.0" x2="792.0" y2="390.0" stroke="#e1e0d9" stroke-width="1"/>
<text x="802.0" y="390.0" dy="0.35em" font-family="system-ui, -apple-system, 'Segoe UI', sans-serif" font-size="11" fill="#898781" style="font-variant-numeric: tabular-nums">0</text>
<line x1="24.0" y1="282.1" x2="792.0" y2="282.1" stroke="#e1e0d9" stroke-width="1"/>
<text x="802.0" y="282.1" dy="0.35em" font-family="system-ui, -apple-system, 'Segoe UI', sans-serif" font-size="11" fill="#898781" style="font-variant-numeric: tabular-nums">5</text>
<line x1="24.0" y1="174.3" x2="792.0" y2="174.3" stroke="#e1e0d9" stroke-width="1"/>
<text x="802.0" y="174.3" dy="0.35em" font-family="system-ui, -apple-system, 'Segoe UI', sans-serif" font-size="11" fill="#898781" style="font-variant-numeric: tabular-nums">10</text>
<line x1="31.7" y1="368.4" x2="31.7" y2="368.4" stroke="#199e70" stroke-width="1"/>
<rect x="25.8" y="368.4" width="11.9" height="0.5" rx="1" fill="#fcfcfb" stroke="#199e70" stroke-width="1.5"/>
<text x="31.7" y="408.0" text-anchor="middle" font-family="system-ui, -apple-system, 'Segoe UI', sans-serif" font-size="11" fill="#898781">Mar 26</text>
<line x1="47.0" y1="325.3" x2="47.0" y2="368.4" stroke="#199e70" stroke-width="1"/>
<rect x="41.1" y="326.0" width="11.9" height="41.6" rx="1" fill="#fcfcfb" stroke="#199e70" stroke-width="1.5"/>
<line x1="62.4" y1="303.7" x2="62.4" y2="325.3" stroke="#199e70" stroke-width="1"/>
<rect x="56.5" y="304.5" width="11.9" height="20.1" rx="1" fill="#fcfcfb" stroke="#199e70" stroke-width="1.5"/>
<line x1="77.8" y1="282.1" x2="77.8" y2="303.7" stroke="#199e70" stroke-width="1"/>
<rect x="71.8" y="282.9" width="11.9" height="20.1" rx="1" fill="#fcfcfb" stroke="#199e70" stroke-width="1.5"/>
<line x1="93.1" y1="260.6" x2="93.1" y2="282.1" stroke="#199e70" stroke-width="1"/>
<rect x="87.2" y="261.3" width="11.9" height="20.1" rx="1" fill="#fcfcfb" stroke="#199e70" stroke-width="1.5"/>
<line x1="108.5" y1="239.0" x2="108.5" y2="260.6" stroke="#199e70" stroke-width="1"/>
<rect x="102.5" y="239.8" width="11.9" height="20.1" rx="1" fill="#fcfcfb" stroke="#199e70" stroke-width="1.5"/>
<line x1="123.8" y1="217.4" x2="123.8" y2="239.0" stroke="#199e70" stroke-width="1"/>
<rect x="117.9" y="218.2" width="11.9" height="20.1" rx="1" fill="#fcfcfb" stroke="#199e70" stroke-width="1.5"/>
<line x1="139.2" y1="195.9" x2="139.2" y2="217.4" stroke="#199e70" stroke-width="1"/>
<rect x="133.3" y="196.6" width="11.9" height="20.1" rx="1" fill="#fcfcfb" stroke="#199e70" stroke-width="1.5"/>
<line x1="154.6" y1="195.9" x2="154.6" y2="195.9" stroke="#199e70" stroke-width="1"/>
<rect x="148.6" y="195.9" width="11.9" height="0.5" rx="1" fill="#fcfcfb" stroke="#199e70" stroke-width="1.5"/>
<line x1="169.9" y1="195.9" x2="169.9" y2="217.4" stroke="#d03b3b" stroke-width="1"/>
<rect x="163.2" y="195.9" width="13.4" height="21.6" rx="1" fill="#d03b3b"/>
<text x="169.9" y="408.0" text-anchor="middle" font-family="system-ui, -apple-system, 'Segoe UI', sans-serif" font-size="11" fill="#898781">Jul 29</text>
<line x1="185.3" y1="217.4" x2="185.3" y2="217.4" stroke="#199e70" stroke-width="1"/>
<rect x="179.3" y="217.4" width="11.9" height="0.5" rx="1" fill="#fcfcfb" stroke="#199e70" stroke-width="1.5"/>
<line x1="200.6" y1="217.4" x2="200.6" y2="217.4" stroke="#199e70" stroke-width="1"/>
<rect x="194.7" y="217.4" width="11.9" height="0.5" rx="1" fill="#fcfcfb" stroke="#199e70" stroke-width="1.5"/>
<line x1="216.0" y1="217.4" x2="216.0" y2="217.4" stroke="#199e70" stroke-width="1"/>
<rect x="210.1" y="217.4" width="11.9" height="0.5" rx="1" fill="#fcfcfb" stroke="#199e70" stroke-width="1.5"/>
<line x1="231.4" y1="217.4" x2="231.4" y2="217.4" stroke="#199e70" stroke-width="1"/>
<rect x="225.4" y="217.4" width="11.9" height="0.5" rx="1" fill="#fcfcfb" stroke="#199e70" stroke-width="1.5"/>
<line x1="246.7" y1="217.4" x2="246.7" y2="217.4" stroke="#199e70" stroke-width="1"/>
<rect x="240.8" y="217.4" width="11.9" height="0.5" rx="1" fill="#fcfcfb" stroke="#199e70" stroke-width="1.5"/>
<line x1="262.1" y1="217.4" x2="262.1" y2="217.4" stroke="#199e70" stroke-width="1"/>
<rect x="256.1" y="217.4" width="11.9" height="0.5" rx="1" fill="#fcfcfb" stroke="#199e70" stroke-width="1.5"/>
<line x1="277.4" y1="217.4" x2="277.4" y2="217.4" stroke="#199e70" stroke-width="1"/>
<rect x="271.5" y="217.4" width="11.9" height="0.5" rx="1" fill="#fcfcfb" stroke="#199e70" stroke-width="1.5"/>
<line x1="292.8" y1="217.4" x2="292.8" y2="217.4" stroke="#199e70" stroke-width="1"/>
<rect x="286.9" y="217.4" width="11.9" height="0.5" rx="1" fill="#fcfcfb" stroke="#199e70" stroke-width="1.5"/>
<line x1="308.2" y1="217.4" x2="308.2" y2="217.4" stroke="#199e70" stroke-width="1"/>
<rect x="302.2" y="217.4" width="11.9" height="0.5" rx="1" fill="#fcfcfb" stroke="#199e70" stroke-width="1.5"/>
<text x="308.2" y="408.0" text-anchor="middle" font-family="system-ui, -apple-system, 'Segoe UI', sans-serif" font-size="11" fill="#898781">Aug 7</text>
<line x1="323.5" y1="217.4" x2="323.5" y2="217.4" stroke="#199e70" stroke-width="1"/>
<rect x="317.6" y="217.4" width="11.9" height="0.5" rx="1" fill="#fcfcfb" stroke="#199e70" stroke-width="1.5"/>
<line x1="338.9" y1="217.4" x2="338.9" y2="217.4" stroke="#199e70" stroke-width="1"/>
<rect x="332.9" y="217.4" width="11.9" height="0.5" rx="1" fill="#fcfcfb" stroke="#199e70" stroke-width="1.5"/>
<line x1="354.2" y1="217.4" x2="354.2" y2="217.4" stroke="#199e70" stroke-width="1"/>
<rect x="348.3" y="217.4" width="11.9" height="0.5" rx="1" fill="#fcfcfb" stroke="#199e70" stroke-width="1.5"/>
<line x1="369.6" y1="217.4" x2="369.6" y2="217.4" stroke="#199e70" stroke-width="1"/>
<rect x="363.7" y="217.4" width="11.9" height="0.5" rx="1" fill="#fcfcfb" stroke="#199e70" stroke-width="1.5"/>
<line x1="385.0" y1="217.4" x2="385.0" y2="217.4" stroke="#199e70" stroke-width="1"/>
<rect x="379.0" y="217.4" width="11.9" height="0.5" rx="1" fill="#fcfcfb" stroke="#199e70" stroke-width="1.5"/>
<line x1="400.3" y1="217.4" x2="400.3" y2="217.4" stroke="#199e70" stroke-width="1"/>
<rect x="394.4" y="217.4" width="11.9" height="0.5" rx="1" fill="#fcfcfb" stroke="#199e70" stroke-width="1.5"/>
<line x1="415.7" y1="217.4" x2="415.7" y2="217.4" stroke="#199e70" stroke-width="1"/>
<rect x="409.8" y="217.4" width="11.9" height="0.5" rx="1" fill="#fcfcfb" stroke="#199e70" stroke-width="1.5"/>
<line x1="431.0" y1="217.4" x2="431.0" y2="217.4" stroke="#199e70" stroke-width="1"/>
<rect x="425.1" y="217.4" width="11.9" height="0.5" rx="1" fill="#fcfcfb" stroke="#199e70" stroke-width="1.5"/>
<line x1="446.4" y1="217.4" x2="446.4" y2="217.4" stroke="#199e70" stroke-width="1"/>
<rect x="440.5" y="217.4" width="11.9" height="0.5" rx="1" fill="#fcfcfb" stroke="#199e70" stroke-width="1.5"/>
<text x="446.4" y="408.0" text-anchor="middle" font-family="system-ui, -apple-system, 'Segoe UI', sans-serif" font-size="11" fill="#898781">Aug 16</text>
<line x1="461.8" y1="217.4" x2="461.8" y2="217.4" stroke="#199e70" stroke-width="1"/>
<rect x="455.8" y="217.4" width="11.9" height="0.5" rx="1" fill="#fcfcfb" stroke="#199e70" stroke-width="1.5"/>
<line x1="477.1" y1="195.9" x2="477.1" y2="217.4" stroke="#199e70" stroke-width="1"/>
<rect x="471.2" y="196.6" width="11.9" height="20.1" rx="1" fill="#fcfcfb" stroke="#199e70" stroke-width="1.5"/>
<line x1="492.5" y1="195.9" x2="492.5" y2="195.9" stroke="#199e70" stroke-width="1"/>
<rect x="486.5" y="195.9" width="11.9" height="0.5" rx="1" fill="#fcfcfb" stroke="#199e70" stroke-width="1.5"/>
<line x1="507.8" y1="195.9" x2="507.8" y2="195.9" stroke="#199e70" stroke-width="1"/>
<rect x="501.9" y="195.9" width="11.9" height="0.5" rx="1" fill="#fcfcfb" stroke="#199e70" stroke-width="1.5"/>
<line x1="523.2" y1="195.9" x2="523.2" y2="195.9" stroke="#199e70" stroke-width="1"/>
<rect x="517.3" y="195.9" width="11.9" height="0.5" rx="1" fill="#fcfcfb" stroke="#199e70" stroke-width="1.5"/>
<line x1="538.6" y1="195.9" x2="538.6" y2="195.9" stroke="#199e70" stroke-width="1"/>
<rect x="532.6" y="195.9" width="11.9" height="0.5" rx="1" fill="#fcfcfb" stroke="#199e70" stroke-width="1.5"/>
<line x1="553.9" y1="174.3" x2="553.9" y2="195.9" stroke="#199e70" stroke-width="1"/>
<rect x="548.0" y="175.0" width="11.9" height="20.1" rx="1" fill="#fcfcfb" stroke="#199e70" stroke-width="1.5"/>
<line x1="569.3" y1="131.1" x2="569.3" y2="174.3" stroke="#199e70" stroke-width="1"/>
<rect x="563.4" y="131.9" width="11.9" height="41.6" rx="1" fill="#fcfcfb" stroke="#199e70" stroke-width="1.5"/>
<line x1="584.6" y1="131.1" x2="584.6" y2="131.1" stroke="#199e70" stroke-width="1"/>
<rect x="578.7" y="131.1" width="11.9" height="0.5" rx="1" fill="#fcfcfb" stroke="#199e70" stroke-width="1.5"/>
<text x="584.6" y="408.0" text-anchor="middle" font-family="system-ui, -apple-system, 'Segoe UI', sans-serif" font-size="11" fill="#898781">Aug 25</text>
<line x1="600.0" y1="131.1" x2="600.0" y2="131.1" stroke="#199e70" stroke-width="1"/>
<rect x="594.1" y="131.1" width="11.9" height="0.5" rx="1" fill="#fcfcfb" stroke="#199e70" stroke-width="1.5"/>
<line x1="615.4" y1="109.6" x2="615.4" y2="131.1" stroke="#199e70" stroke-width="1"/>
<rect x="609.4" y="110.3" width="11.9" height="20.1" rx="1" fill="#fcfcfb" stroke="#199e70" stroke-width="1.5"/>
<line x1="630.7" y1="109.6" x2="630.7" y2="109.6" stroke="#199e70" stroke-width="1"/>
<rect x="624.8" y="109.6" width="11.9" height="0.5" rx="1" fill="#fcfcfb" stroke="#199e70" stroke-width="1.5"/>
<line x1="646.1" y1="109.6" x2="646.1" y2="109.6" stroke="#199e70" stroke-width="1"/>
<rect x="640.1" y="109.6" width="11.9" height="0.5" rx="1" fill="#fcfcfb" stroke="#199e70" stroke-width="1.5"/>
<line x1="661.4" y1="109.6" x2="661.4" y2="109.6" stroke="#199e70" stroke-width="1"/>
<rect x="655.5" y="109.6" width="11.9" height="0.5" rx="1" fill="#fcfcfb" stroke="#199e70" stroke-width="1.5"/>
<line x1="676.8" y1="109.6" x2="676.8" y2="109.6" stroke="#199e70" stroke-width="1"/>
<rect x="670.9" y="109.6" width="11.9" height="0.5" rx="1" fill="#fcfcfb" stroke="#199e70" stroke-width="1.5"/>
<line x1="692.2" y1="109.6" x2="692.2" y2="109.6" stroke="#199e70" stroke-width="1"/>
<rect x="686.2" y="109.6" width="11.9" height="0.5" rx="1" fill="#fcfcfb" stroke="#199e70" stroke-width="1.5"/>
<line x1="707.5" y1="109.6" x2="707.5" y2="109.6" stroke="#199e70" stroke-width="1"/>
<rect x="701.6" y="109.6" width="11.9" height="0.5" rx="1" fill="#fcfcfb" stroke="#199e70" stroke-width="1.5"/>
<line x1="722.9" y1="109.6" x2="722.9" y2="109.6" stroke="#199e70" stroke-width="1"/>
<rect x="717.0" y="109.6" width="11.9" height="0.5" rx="1" fill="#fcfcfb" stroke="#199e70" stroke-width="1.5"/>
<text x="722.9" y="408.0" text-anchor="middle" font-family="system-ui, -apple-system, 'Segoe UI', sans-serif" font-size="11" fill="#898781">Sep 3</text>
<line x1="738.2" y1="109.6" x2="738.2" y2="109.6" stroke="#199e70" stroke-width="1"/>
<rect x="732.3" y="109.6" width="11.9" height="0.5" rx="1" fill="#fcfcfb" stroke="#199e70" stroke-width="1.5"/>
<line x1="753.6" y1="109.6" x2="753.6" y2="109.6" stroke="#199e70" stroke-width="1"/>
<rect x="747.7" y="109.6" width="11.9" height="0.5" rx="1" fill="#fcfcfb" stroke="#199e70" stroke-width="1.5"/>
<line x1="769.0" y1="109.6" x2="769.0" y2="109.6" stroke="#199e70" stroke-width="1"/>
<rect x="763.0" y="109.6" width="11.9" height="0.5" rx="1" fill="#fcfcfb" stroke="#199e70" stroke-width="1.5"/>
<line x1="784.3" y1="109.6" x2="784.3" y2="109.6" stroke="#199e70" stroke-width="1"/>
<rect x="778.4" y="109.6" width="11.9" height="0.5" rx="1" fill="#fcfcfb" stroke="#199e70" stroke-width="1.5"/>
<rect x="0.5" y="0.5" width="879" height="439" rx="8" fill="none" stroke="rgba(11,11,11,0.10)"/>
</svg>
