<svg xmlns="http://www.w3.org/2000/svg" width="880" height="440" viewBox="0 0 880 440" role="img" aria-label="Daily candlestick chart of GitHub stars for Mukbeast4/go-mt5">
<rect width="880" height="440" rx="8" fill="#1a1a19"/>
<text x="24" y="42" font-family="system-ui, -apple-system, 'Segoe UI', sans-serif" font-size="13" fill="#c3c2b7">Mukbeast4/go-mt5 · Daily</text>
<text x="24" y="74" font-family="system-ui, -apple-system, 'Segoe UI', sans-serif"><tspan font-size="28" font-weight="600" fill="#ffffff">14</tspan><tspan dx="8" font-size="13" fill="#c3c2b7">stars</tspan><tspan dx="12" font-size="13" fill="#0ca30c">+1 (+7.7%) today</tspan></text>
<line x1="24.0" y1="390.0" x2="792.0" y2="390.0" stroke="#2c2c2a" stroke-width="1"/>
<text x="802.0" y="390.0" dy="0.35em" font-family="system-ui, -apple-system, 'Segoe UI', sans-serif" font-size="11" fill="#898781" style="font-variant-numeric: tabular-nums">0</text>
<line x1="24.0" y1="289.6" x2="792.0" y2="289.6" stroke="#2c2c2a" stroke-width="1"/>
<text x="802.0" y="289.6" dy="0.35em" font-family="system-ui, -apple-system, 'Segoe UI', sans-serif" font-size="11" fill="#898781" style="font-variant-numeric: tabular-nums">5</text>
<line x1="24.0" y1="189.2" x2="792.0" y2="189.2" stroke="#2c2c2a" stroke-width="1"/>
<text x="802.0" y="189.2" dy="0.35em" font-family="system-ui, -apple-system, 'Segoe UI', sans-serif" font-size="11" fill="#898781" style="font-variant-numeric: tabular-nums">10</text>
<line x1="24.0" y1="88.8" x2="792.0" y2="88.8" stroke="#2c2c2a" stroke-width="1"/>
<text x="802.0" y="88.8" dy="0.35em" font-family="system-ui, -apple-system, 'Segoe UI', sans-serif" font-size="11" fill="#898781" style="font-variant-numeric: tabular-nums">15</text>
<line x1="31.7" y1="369.9" x2="31.7" y2="369.9" stroke="#199e70" stroke-width="1"/>
<rect x="25.8" y="369.9" width="11.9" height="0.5" rx="1" fill="#1a1a19" stroke="#199e70" stroke-width="1.5"/>
<text x="31.7" y="408.0" text-anchor="middle" font-family="system-ui, -apple-system, 'Segoe UI', sans-serif" font-size="11" fill="#898781">Mar 26</text>
<line x1="47.0" y1="329.8" x2="47.0" y2="369.9" stroke="#199e70" stroke-width="1"/>
<rect x="41.1" y="330.5" width="11.9" height="38.7" rx="1" fill="#1a1a19" stroke="#199e70" stroke-width="1.5"/>
<line x1="62.4" y1="309.7" x2="62.4" y2="329.8" stroke="#199e70" stroke-width="1"/>
<rect x="56.5" y="310.4" width="11.9" height="18.6" rx="1" fill="#1a1a19" stroke="#199e70" stroke-width="1.5"/>
<line x1="77.8" y1="289.6" x2="77.8" y2="309.7" stroke="#199e70" stroke-width="1"/>
<rect x="71.8" y="290.4" width="11.9" height="18.6" rx="1" fill="#1a1a19" stroke="#199e70" stroke-width="1.5"/>
<line x1="93.1" y1="269.5" x2="93.1" y2="289.6" stroke="#199e70" stroke-width="1"/>
<rect x="87.2" y="270.3" width="11.9" height="18.6" rx="1" fill="#1a1a19" stroke="#199e70" stroke-width="1.5"/>
<line x1="108.5" y1="249.4" x2="108.5" y2="269.5" stroke="#199e70" stroke-width="1"/>
<rect x="102.5" y="250.2" width="11.9" height="18.6" rx="1" fill="#1a1a19" stroke="#199e70" stroke-width="1.5"/>
<line x1="123.8" y1="229.4" x2="123.8" y2="249.4" stroke="#199e70" stroke-width="1"/>
<rect x="117.9" y="230.1" width="11.9" height="18.6" rx="1" fill="#1a1a19" stroke="#199e70" stroke-width="1.5"/>
<line x1="139.2" y1="209.3" x2="139.2" y2="229.4" stroke="#199e70" stroke-width="1"/>
<rect x="133.3" y="210.0" width="11.9" height="18.6" rx="1" fill="#1a1a19" stroke="#199e70" stroke-width="1.5"/>
<line x1="154.6" y1="209.3" x2="154.6" y2="209.3" stroke="#199e70" stroke-width="1"/>
<rect x="148.6" y="209.3" width="11.9" height="0.5" rx="1" fill="#1a1a19" stroke="#199e70" stroke-width="1.5"/>
<line x1="169.9" y1="209.3" x2="169.9" y2="229.4" stroke="#d03b3b" stroke-width="1"/>
<rect x="163.2" y="209.3" width="13.4" height="20.1" rx="1" fill="#d03b3b"/>
<text x="169.9" y="408.0" text-anchor="middle" font-family="system-ui, -apple-system, 'Segoe UI', sans-serif" font-size="11" fill="#898781">Jul 29</text>
<line x1="185.3" y1="229.4" x2="185.3" y2="229.4" stroke="#199e70" stroke-width="1"/>
<rect x="179.3" y="229.4" width="11.9" height="0.5" rx="1" fill="#1a1a19" stroke="#199e70" stroke-width="1.5"/>
<line x1="200.6" y1="229.4" x2="200.6" y2="229.4" stroke="#199e70" stroke-width="1"/>
<rect x="194.7" y="229.4" width="11.9" height="0.5" rx="1" fill="#1a1a19" stroke="#199e70" stroke-width="1.5"/>
<line x1="216.0" y1="229.4" x2="216.0" y2="229.4" stroke="#199e70" stroke-width="1"/>
<rect x="210.1" y="229.4" width="11.9" height="0.5" rx="1" fill="#1a1a19" stroke="#199e70" stroke-width="1.5"/>
<line x1="231.4" y1="229.4" x2="231.4" y2="229.4" stroke="#199e70" stroke-width="1"/>
<rect x="225.4" y="229.4" width="11.9" height="0.5" rx="1" fill="#1a1a19" stroke="#199e70" stroke-width="1.5"/>
<line x1="246.7" y1="229.4" x2="246.7" y2="229.4" stroke="#199e70" stroke-width="1"/>
<rect x="240.8" y="229.4" width="11.9" height="0.5" rx="1" fill="#1a1a19" stroke="#199e70" stroke-width="1.5"/>
<line x1="262.1" y1="229.4" x2="262.1" y2="229.4" stroke="#199e70" stroke-width="1"/>
<rect x="256.1" y="229.4" width="11.9" height="0.5" rx="1" fill="#1a1a19" stroke="#199e70" stroke-width="1.5"/>
<line x1="277.4" y1="229.4" x2="277.4" y2="229.4" stroke="#199e70" stroke-width="1"/>
<rect x="271.5" y="229.4" width="11.9" height="0.5" rx="1" fill="#1a1a19" stroke="#199e70" stroke-width="1.5"/>
<line x1="292.8" y1="229.4" x2="292.8" y2="229.4" stroke="#199e70" stroke-width="1"/>
<rect x="286.9" y="229.4" width="11.9" height="0.5" rx="1" fill="#1a1a19" stroke="#199e70" stroke-width="1.5"/>
<line x1="308.2" y1="229.4" x2="308.2" y2="229.4" stroke="#199e70" stroke-width="1"/>
<rect x="302.2" y="229.4" width="11.9" height="0.5" rx="1" fill="#1a1a19" stroke="#199e70" stroke-width="1.5"/>
<text x="308.2" y="408.0" text-anchor="middle" font-family="system-ui, -apple-system, 'Segoe UI', sans-serif" font-size="11" fill="#898781">Aug 7</text>
<line x1="323.5" y1="229.4" x2="323.5" y2="229.4" stroke="#199e70" stroke-width="1"/>
<rect x="317.6" y="229.4" width="11.9" height="0.5" rx="1" fill="#1a1a19" stroke="#199e70" stroke-width="1.5"/>
<line x1="338.9" y1="229.4" x2="338.9" y2="229.4" stroke="#199e70" stroke-width="1"/>
<rect x="332.9" y="229.4" width="11.9" height="0.5" rx="1" fill="#1a1a19" stroke="#199e70" stroke-width="1.5"/>
<line x1="354.2" y1="229.4" x2="354.2" y2="229.4" stroke="#199e70" stroke-width="1"/>
<rect x="348.3" y="229.4" width="11.9" height="0.5" rx="1" fill="#1a1a19" stroke="#199e70" stroke-width="1.5"/>
<line x1="369.6" y1="229.4" x2="369.6" y2="229.4" stroke="#199e70" stroke-width="1"/>
<rect x="363.7" y="229.4" width="11.9" height="0.5" rx="1" fill="#1a1a19" stroke="#199e70" stroke-width="1.5"/>
<line x1="385.0" y1="229.4" x2="385.0" y2="229.4" stroke="#199e70" stroke-width="1"/>
<rect x="379.0" y="229.4" width="11.9" height="0.5" rx="1" fill="#1a1a19" stroke="#199e70" stroke-width="1.5"/>
<line x1="400.3" y1="229.4" x2="400.3" y2="229.4" stroke="#199e70" stroke-width="1"/>
<rect x="394.4" y="229.4" width="11.9" height="0.5" rx="1" fill="#1a1a19" stroke="#199e70" stroke-width="1.5"/>
<line x1="415.7" y1="229.4" x2="415.7" y2="229.4" stroke="#199e70" stroke-width="1"/>
<rect x="409.8" y="229.4" width="11.9" height="0.5" rx="1" fill="#1a1a19" stroke="#199e70" stroke-width="1.5"/>
<line x1="431.0" y1="229.4" x2="431.0" y2="229.4" stroke="#199e70" stroke-width="1"/>
<rect x="425.1" y="229.4" width="11.9" height="0.5" rx="1" fill="#1a1a19" stroke="#199e70" stroke-width="1.5"/>
<line x1="446.4" y1="229.4" x2="446.4" y2="229.4" stroke="#199e70" stroke-width="1"/>
<rect x="440.5" y="229.4" width="11.9" height="0.5" rx="1" fill="#1a1a19" stroke="#199e70" stroke-width="1.5"/>
<text x="446.4" y="408.0" text-anchor="middle" font-family="system-ui, -apple-system, 'Segoe UI', sans-serif" font-size="11" fill="#898781">Aug 16</text>
<line x1="461.8" y1="229.4" x2="461.8" y2="229.4" stroke="#199e70" stroke-width="1"/>
<rect x="455.8" y="229.4" width="11.9" height="0.5" rx="1" fill="#1a1a19" stroke="#199e70" stroke-width="1.5"/>
<line x1="477.1" y1="209.3" x2="477.1" y2="229.4" stroke="#199e70" stroke-width="1"/>
<rect x="471.2" y="210.0" width="11.9" height="18.6" rx="1" fill="#1a1a19" stroke="#199e70" stroke-width="1.5"/>
<line x1="492.5" y1="209.3" x2="492.5" y2="209.3" stroke="#199e70" stroke-width="1"/>
<rect x="486.5" y="209.3" width="11.9" height="0.5" rx="1" fill="#1a1a19" stroke="#199e70" stroke-width="1.5"/>
<line x1="507.8" y1="209.3" x2="507.8" y2="209.3" stroke="#199e70" stroke-width="1"/>
<rect x="501.9" y="209.3" width="11.9" height="0.5" rx="1" fill="#1a1a19" stroke="#199e70" stroke-width="1.5"/>
<line x1="523.2" y1="209.3" x2="523.2" y2="209.3" stroke="#199e70" stroke-width="1"/>
<rect x="517.3" y="209.3" width="11.9" height="0.5" rx="1" fill="#1a1a19" stroke="#199e70" stroke-width="1.5"/>
<line x1="538.6" y1="209.3" x2="538.6" y2="209.3" stroke="#199e70" stroke-width="1"/>
<rect x="532.6" y="209.3" width="11.9" height="0.5" rx="1" fill="#1a1a19" stroke="#199e70" stroke-width="1.5"/>
<line x1="553.9" y1="189.2" x2="553.9" y2="209.3" stroke="#199e70" stroke-width="1"/>
<rect x="548.0" y="190.0" width="11.9" height="18.6" rx="1" fill="#1a1a19" stroke="#199e70" stroke-width="1.5"/>
<line x1="569.3" y1="149.0" x2="569.3" y2="189.2" stroke="#199e70" stroke-width="1"/>
<rect x="563.4" y="149.8" width="11.9" height="38.7" rx="1" fill="#1a1a19" stroke="#199e70" stroke-width="1.5"/>
<line x1="584.6" y1="149.0" x2="584.6" y2="149.0" stroke="#199e70" stroke-width="1"/>
<rect x="578.7" y="149.0" width="11.9" height="0.5" rx="1" fill="#1a1a19" stroke="#199e70" stroke-width="1.5"/>
<text x="584.6" y="408.0" text-anchor="middle" font-family="system-ui, -apple-system, 'Segoe UI', sans-serif" font-size="11" fill="#898781">Aug 25</text>
<line x1="600.0" y1="149.0" x2="600.0" y2="149.0" stroke="#199e70" stroke-width="1"/>
<rect x="594.1" y="149.0" width="11.9" height="0.5" rx="1" fill="#1a1a19" stroke="#199e70" stroke-width="1.5"/>
<line x1="615.4" y1="129.0" x2="615.4" y2="149.0" stroke="#199e70" stroke-width="1"/>
<rect x="609.4" y="129.7" width="11.9" height="18.6" rx="1" fill="#1a1a19" stroke="#199e70" stroke-width="1.5"/>
<line x1="630.7" y1="129.0" x2="630.7" y2="129.0" stroke="#199e70" stroke-width="1"/>
<rect x="624.8" y="129.0" width="11.9" height="0.5" rx="1" fill="#1a1a19" stroke="#199e70" stroke-width="1.5"/>
<line x1="646.1" y1="129.0" x2="646.1" y2="129.0" stroke="#199e70" stroke-width="1"/>
<rect x="640.1" y="129.0" width="11.9" height="0.5" rx="1" fill="#1a1a19" stroke="#199e70" stroke-width="1.5"/>
<line x1="661.4" y1="129.0" x2="661.4" y2="129.0" stroke="#199e70" stroke-width="1"/>
<rect x="655.5" y="129.0" width="11.9" height="0.5" rx="1" fill="#1a1a19" stroke="#199e70" stroke-width="1.5"/>
<line x1="676.8" y1="129.0" x2="676.8" y2="129.0" stroke="#199e70" stroke-width="1"/>
<rect x="670.9" y="129.0" width="11.9" height="0.5" rx="1" fill="#1a1a19" stroke="#199e70" stroke-width="1.5"/>
<line x1="692.2" y1="129.0" x2="692.2" y2="129.0" stroke="#199e70" stroke-width="1"/>
<rect x="686.2" y="129.0" width="11.9" height="0.5" rx="1" fill="#1a1a19" stroke="#199e70" stroke-width="1.5"/>
<line x1="707.5" y1="129.0" x2="707.5" y2="129.0" stroke="#199e70" stroke-width="1"/>
<rect x="701.6" y="129.0" width="11.9" height="0.5" rx="1" fill="#1a1a19" stroke="#199e70" stroke-width="1.5"/>
<line x1="722.9" y1="129.0" x2="722.9" y2="129.0" stroke="#199e70" stroke-width="1"/>
<rect x="717.0" y="129.0" width="11.9" height="0.5" rx="1" fill="#1a1a19" stroke="#199e70" stroke-width="1.5"/>
<text x="722.9" y="408.0" text-anchor="middle" font-family="system-ui, -apple-system, 'Segoe UI', sans-serif" font-size="11" fill="#898781">Sep 3</text>
<line x1="738.2" y1="129.0" x2="738.2" y2="129.0" stroke="#199e70" stroke-width="1"/>
<rect x="732.3" y="129.0" width="11.9" height="0.5" rx="1" fill="#1a1a19" stroke="#199e70" stroke-width="1.5"/>
<line x1="753.6" y1="129.0" x2="753.6" y2="129.0" stroke="#199e70" stroke-width="1"/>
<rect x="747.7" y="129.0" width="11.9" height="0.5" rx="1" fill="#1a1a19" stroke="#199e70" stroke-width="1.5"/>
<line x1="769.0" y1="129.0" x2="769.0" y2="129.0" stroke="#199e70" stroke-width="1"/>
<rect x="763.0" y="129.0" width="11.9" height="0.5" rx="1" fill="#1a1a19" stroke="#199e70" stroke-width="1.5"/>
<line x1="784.3" y1="108.9" x2="784.3" y2="129.0" stroke="#199e70" stroke-width="1"/>
<rect x="778.4" y="109.6" width="11.9" height="18.6" rx="1" fill="#1a1a19" stroke="#199e70" stroke-width="1.5"/>
<rect x="0.5" y="0.5" width="879" height="439" rx="8" fill="none" stroke="rgba(255,255,255,0.10)"/>
</svg>
