<svg xmlns="http://www.w3.org/2000/svg" width="880" height="440" viewBox="0 0 880 440" role="img" aria-label="Daily candlestick chart of GitHub stars for Mukbeast4/go-mt5">
<rect width="880" height="440" rx="8" fill="#fcfcfb"/>
<text x="24" y="42" font-family="system-ui, -apple-system, 'Segoe UI', sans-serif" font-size="13" fill="#52514e">Mukbeast4/go-mt5 · Daily</text>
<text x="24" y="74" font-family="system-ui, -apple-system, 'Segoe UI', sans-serif"><tspan font-size="28" font-weight="600" fill="#0b0b0b">16</tspan><tspan dx="8" font-size="13" fill="#52514e">stars</tspan></text>
<line x1="24.0" y1="390.0" x2="792.0" y2="390.0" stroke="#e1e0d9" stroke-width="1"/>
<text x="802.0" y="390.0" dy="0.35em" font-family="system-ui, -apple-system, 'Segoe UI', sans-serif" font-size="11" fill="#898781" style="font-variant-numeric: tabular-nums">0</text>
<line x1="24.0" y1="302.2" x2="792.0" y2="302.2" stroke="#e1e0d9" stroke-width="1"/>
<text x="802.0" y="302.2" dy="0.35em" font-family="system-ui, -apple-system, 'Segoe UI', sans-serif" font-size="11" fill="#898781" style="font-variant-numeric: tabular-nums">5</text>
<line x1="24.0" y1="214.4" x2="792.0" y2="214.4" stroke="#e1e0d9" stroke-width="1"/>
<text x="802.0" y="214.4" dy="0.35em" font-family="system-ui, -apple-system, 'Segoe UI', sans-serif" font-size="11" fill="#898781" style="font-variant-numeric: tabular-nums">10</text>
<line x1="24.0" y1="126.6" x2="792.0" y2="126.6" stroke="#e1e0d9" stroke-width="1"/>
<text x="802.0" y="126.6" dy="0.35em" font-family="system-ui, -apple-system, 'Segoe UI', sans-serif" font-size="11" fill="#898781" style="font-variant-numeric: tabular-nums">15</text>
<line x1="28.7" y1="372.4" x2="28.7" y2="372.4" stroke="#199e70" stroke-width="1"/>
<rect x="25.8" y="372.4" width="6.0" height="0.5" rx="1" fill="#fcfcfb" stroke="#199e70" stroke-width="1.5"/>
<text x="28.7" y="408.0" text-anchor="middle" font-family="system-ui, -apple-system, 'Segoe UI', sans-serif" font-size="11" fill="#898781">Mar 26</text>
<line x1="38.2" y1="337.3" x2="38.2" y2="372.4" stroke="#199e70" stroke-width="1"/>
<rect x="35.2" y="338.1" width="6.0" height="33.6" rx="1" fill="#fcfcfb" stroke="#199e70" stroke-width="1.5"/>
<line x1="47.7" y1="319.8" x2="47.7" y2="337.3" stroke="#199e70" stroke-width="1"/>
<rect x="44.7" y="320.5" width="6.0" height="16.1" rx="1" fill="#fcfcfb" stroke="#199e70" stroke-width="1.5"/>
<line x1="57.2" y1="302.2" x2="57.2" y2="319.8" stroke="#199e70" stroke-width="1"/>
<rect x="54.2" y="303.0" width="6.0" height="16.1" rx="1" fill="#fcfcfb" stroke="#199e70" stroke-width="1.5"/>
<line x1="66.7" y1="284.7" x2="66.7" y2="302.2" stroke="#199e70" stroke-width="1"/>
<rect x="63.7" y="285.4" width="6.0" height="16.1" rx="1" fill="#fcfcfb" stroke="#199e70" stroke-width="1.5"/>
<line x1="76.1" y1="267.1" x2="76.1" y2="284.7" stroke="#199e70" stroke-width="1"/>
<rect x="73.2" y="267.8" width="6.0" height="16.1" rx="1" fill="#fcfcfb" stroke="#199e70" stroke-width="1.5"/>
<line x1="85.6" y1="249.5" x2="85.6" y2="267.1" stroke="#199e70" stroke-width="1"/>
<rect x="82.6" y="250.3" width="6.0" height="16.1" rx="1" fill="#fcfcfb" stroke="#199e70" stroke-width="1.5"/>
<line x1="95.1" y1="232.0" x2="95.1" y2="249.5" stroke="#199e70" stroke-width="1"/>
<rect x="92.1" y="232.7" width="6.0" height="16.1" rx="1" fill="#fcfcfb" stroke="#199e70" stroke-width="1.5"/>
<line x1="104.6" y1="232.0" x2="104.6" y2="232.0" stroke="#199e70" stroke-width="1"/>
<rect x="101.6" y="232.0" width="6.0" height="0.5" rx="1" fill="#fcfcfb" stroke="#199e70" stroke-width="1.5"/>
<line x1="114.1" y1="232.0" x2="114.1" y2="249.5" stroke="#d03b3b" stroke-width="1"/>
<rect x="110.3" y="232.0" width="7.5" height="17.6" rx="1" fill="#d03b3b"/>
<line x1="123.6" y1="249.5" x2="123.6" y2="249.5" stroke="#199e70" stroke-width="1"/>
<rect x="120.6" y="249.5" width="6.0" height="0.5" rx="1" fill="#fcfcfb" stroke="#199e70" stroke-width="1.5"/>
<line x1="133.0" y1="249.5" x2="133.0" y2="249.5" stroke="#199e70" stroke-width="1"/>
<rect x="130.0" y="249.5" width="6.0" height="0.5" rx="1" fill="#fcfcfb" stroke="#199e70" stroke-width="1.5"/>
<line x1="142.5" y1="249.5" x2="142.5" y2="249.5" stroke="#199e70" stroke-width="1"/>
<rect x="139.5" y="249.5" width="6.0" height="0.5" rx="1" fill="#fcfcfb" stroke="#199e70" stroke-width="1.5"/>
<line x1="152.0" y1="249.5" x2="152.0" y2="249.5" stroke="#199e70" stroke-width="1"/>
<rect x="149.0" y="249.5" width="6.0" height="0.5" rx="1" fill="#fcfcfb" stroke="#199e70" stroke-width="1.5"/>
<line x1="161.5" y1="249.5" x2="161.5" y2="249.5" stroke="#199e70" stroke-width="1"/>
<rect x="158.5" y="249.5" width="6.0" height="0.5" rx="1" fill="#fcfcfb" stroke="#199e70" stroke-width="1.5"/>
<text x="161.5" y="408.0" text-anchor="middle" font-family="system-ui, -apple-system, 'Segoe UI', sans-serif" font-size="11" fill="#898781">Aug 3</text>
<line x1="171.0" y1="249.5" x2="171.0" y2="249.5" stroke="#199e70" stroke-width="1"/>
<rect x="168.0" y="249.5" width="6.0" height="0.5" rx="1" fill="#fcfcfb" stroke="#199e70" stroke-width="1.5"/>
<line x1="180.4" y1="249.5" x2="180.4" y2="249.5" stroke="#199e70" stroke-width="1"/>
<rect x="177.5" y="249.5" width="6.0" height="0.5" rx="1" fill="#fcfcfb" stroke="#199e70" stroke-width="1.5"/>
<line x1="189.9" y1="249.5" x2="189.9" y2="249.5" stroke="#199e70" stroke-width="1"/>
<rect x="186.9" y="249.5" width="6.0" height="0.5" rx="1" fill="#fcfcfb" stroke="#199e70" stroke-width="1.5"/>
<line x1="199.4" y1="249.5" x2="199.4" y2="249.5" stroke="#199e70" stroke-width="1"/>
<rect x="196.4" y="249.5" width="6.0" height="0.5" rx="1" fill="#fcfcfb" stroke="#199e70" stroke-width="1.5"/>
<line x1="208.9" y1="249.5" x2="208.9" y2="249.5" stroke="#199e70" stroke-width="1"/>
<rect x="205.9" y="249.5" width="6.0" height="0.5" rx="1" fill="#fcfcfb" stroke="#199e70" stroke-width="1.5"/>
<line x1="218.4" y1="249.5" x2="218.4" y2="249.5" stroke="#199e70" stroke-width="1"/>
<rect x="215.4" y="249.5" width="6.0" height="0.5" rx="1" fill="#fcfcfb" stroke="#199e70" stroke-width="1.5"/>
<line x1="227.9" y1="249.5" x2="227.9" y2="249.5" stroke="#199e70" stroke-width="1"/>
<rect x="224.9" y="249.5" width="6.0" height="0.5" rx="1" fill="#fcfcfb" stroke="#199e70" stroke-width="1.5"/>
<line x1="237.3" y1="249.5" x2="237.3" y2="249.5" stroke="#199e70" stroke-width="1"/>
<rect x="234.3" y="249.5" width="6.0" height="0.5" rx="1" fill="#fcfcfb" stroke="#199e70" stroke-width="1.5"/>
<line x1="246.8" y1="249.5" x2="246.8" y2="249.5" stroke="#199e70" stroke-width="1"/>
<rect x="243.8" y="249.5" width="6.0" height="0.5" rx="1" fill="#fcfcfb" stroke="#199e70" stroke-width="1.5"/>
<line x1="256.3" y1="249.5" x2="256.3" y2="249.5" stroke="#199e70" stroke-width="1"/>
<rect x="253.3" y="249.5" width="6.0" height="0.5" rx="1" fill="#fcfcfb" stroke="#199e70" stroke-width="1.5"/>
<line x1="265.8" y1="249.5" x2="265.8" y2="249.5" stroke="#199e70" stroke-width="1"/>
<rect x="262.8" y="249.5" width="6.0" height="0.5" rx="1" fill="#fcfcfb" stroke="#199e70" stroke-width="1.5"/>
<line x1="275.3" y1="249.5" x2="275.3" y2="249.5" stroke="#199e70" stroke-width="1"/>
<rect x="272.3" y="249.5" width="6.0" height="0.5" rx="1" fill="#fcfcfb" stroke="#199e70" stroke-width="1.5"/>
<line x1="284.7" y1="249.5" x2="284.7" y2="249.5" stroke="#199e70" stroke-width="1"/>
<rect x="281.7" y="249.5" width="6.0" height="0.5" rx="1" fill="#fcfcfb" stroke="#199e70" stroke-width="1.5"/>
<line x1="294.2" y1="249.5" x2="294.2" y2="249.5" stroke="#199e70" stroke-width="1"/>
<rect x="291.2" y="249.5" width="6.0" height="0.5" rx="1" fill="#fcfcfb" stroke="#199e70" stroke-width="1.5"/>
<text x="294.2" y="408.0" text-anchor="middle" font-family="system-ui, -apple-system, 'Segoe UI', sans-serif" font-size="11" fill="#898781">Aug 17</text>
<line x1="303.7" y1="232.0" x2="303.7" y2="249.5" stroke="#199e70" stroke-width="1"/>
<rect x="300.7" y="232.7" width="6.0" height="16.1" rx="1" fill="#fcfcfb" stroke="#199e70" stroke-width="1.5"/>
<line x1="313.2" y1="232.0" x2="313.2" y2="232.0" stroke="#199e70" stroke-width="1"/>
<rect x="310.2" y="232.0" width="6.0" height="0.5" rx="1" fill="#fcfcfb" stroke="#199e70" stroke-width="1.5"/>
<line x1="322.7" y1="232.0" x2="322.7" y2="232.0" stroke="#199e70" stroke-width="1"/>
<rect x="319.7" y="232.0" width="6.0" height="0.5" rx="1" fill="#fcfcfb" stroke="#199e70" stroke-width="1.5"/>
<line x1="332.1" y1="232.0" x2="332.1" y2="232.0" stroke="#199e70" stroke-width="1"/>
<rect x="329.2" y="232.0" width="6.0" height="0.5" rx="1" fill="#fcfcfb" stroke="#199e70" stroke-width="1.5"/>
<line x1="341.6" y1="232.0" x2="341.6" y2="232.0" stroke="#199e70" stroke-width="1"/>
<rect x="338.6" y="232.0" width="6.0" height="0.5" rx="1" fill="#fcfcfb" stroke="#199e70" stroke-width="1.5"/>
<line x1="351.1" y1="214.4" x2="351.1" y2="232.0" stroke="#199e70" stroke-width="1"/>
<rect x="348.1" y="215.2" width="6.0" height="16.1" rx="1" fill="#fcfcfb" stroke="#199e70" stroke-width="1.5"/>
<line x1="360.6" y1="179.3" x2="360.6" y2="214.4" stroke="#199e70" stroke-width="1"/>
<rect x="357.6" y="180.1" width="6.0" height="33.6" rx="1" fill="#fcfcfb" stroke="#199e70" stroke-width="1.5"/>
<line x1="370.1" y1="179.3" x2="370.1" y2="179.3" stroke="#199e70" stroke-width="1"/>
<rect x="367.1" y="179.3" width="6.0" height="0.5" rx="1" fill="#fcfcfb" stroke="#199e70" stroke-width="1.5"/>
<line x1="379.6" y1="179.3" x2="379.6" y2="179.3" stroke="#199e70" stroke-width="1"/>
<rect x="376.6" y="179.3" width="6.0" height="0.5" rx="1" fill="#fcfcfb" stroke="#199e70" stroke-width="1.5"/>
<line x1="389.0" y1="161.7" x2="389.0" y2="179.3" stroke="#199e70" stroke-width="1"/>
<rect x="386.0" y="162.5" width="6.0" height="16.1" rx="1" fill="#fcfcfb" stroke="#199e70" stroke-width="1.5"/>
<line x1="398.5" y1="161.7" x2="398.5" y2="161.7" stroke="#199e70" stroke-width="1"/>
<rect x="395.5" y="161.7" width="6.0" height="0.5" rx="1" fill="#fcfcfb" stroke="#199e70" stroke-width="1.5"/>
<line x1="408.0" y1="161.7" x2="408.0" y2="161.7" stroke="#199e70" stroke-width="1"/>
<rect x="405.0" y="161.7" width="6.0" height="0.5" rx="1" fill="#fcfcfb" stroke="#199e70" stroke-width="1.5"/>
<line x1="417.5" y1="161.7" x2="417.5" y2="161.7" stroke="#199e70" stroke-width="1"/>
<rect x="414.5" y="161.7" width="6.0" height="0.5" rx="1" fill="#fcfcfb" stroke="#199e70" stroke-width="1.5"/>
<line x1="427.0" y1="161.7" x2="427.0" y2="161.7" stroke="#199e70" stroke-width="1"/>
<rect x="424.0" y="161.7" width="6.0" height="0.5" rx="1" fill="#fcfcfb" stroke="#199e70" stroke-width="1.5"/>
<text x="427.0" y="408.0" text-anchor="middle" font-family="system-ui, -apple-system, 'Segoe UI', sans-serif" font-size="11" fill="#898781">Aug 31</text>
<line x1="436.4" y1="161.7" x2="436.4" y2="161.7" stroke="#199e70" stroke-width="1"/>
<rect x="433.5" y="161.7" width="6.0" height="0.5" rx="1" fill="#fcfcfb" stroke="#199e70" stroke-width="1.5"/>
<line x1="445.9" y1="161.7" x2="445.9" y2="161.7" stroke="#199e70" stroke-width="1"/>
<rect x="442.9" y="161.7" width="6.0" height="0.5" rx="1" fill="#fcfcfb" stroke="#199e70" stroke-width="1.5"/>
<line x1="455.4" y1="161.7" x2="455.4" y2="161.7" stroke="#199e70" stroke-width="1"/>
<rect x="452.4" y="161.7" width="6.0" height="0.5" rx="1" fill="#fcfcfb" stroke="#199e70" stroke-width="1.5"/>
<line x1="464.9" y1="161.7" x2="464.9" y2="161.7" stroke="#199e70" stroke-width="1"/>
<rect x="461.9" y="161.7" width="6.0" height="0.5" rx="1" fill="#fcfcfb" stroke="#199e70" stroke-width="1.5"/>
<line x1="474.4" y1="161.7" x2="474.4" y2="161.7" stroke="#199e70" stroke-width="1"/>
<rect x="471.4" y="161.7" width="6.0" height="0.5" rx="1" fill="#fcfcfb" stroke="#199e70" stroke-width="1.5"/>
<line x1="483.9" y1="161.7" x2="483.9" y2="161.7" stroke="#199e70" stroke-width="1"/>
<rect x="480.9" y="161.7" width="6.0" height="0.5" rx="1" fill="#fcfcfb" stroke="#199e70" stroke-width="1.5"/>
<line x1="493.3" y1="144.2" x2="493.3" y2="161.7" stroke="#199e70" stroke-width="1"/>
<rect x="490.3" y="144.9" width="6.0" height="16.1" rx="1" fill="#fcfcfb" stroke="#199e70" stroke-width="1.5"/>
<line x1="502.8" y1="144.2" x2="502.8" y2="144.2" stroke="#199e70" stroke-width="1"/>
<rect x="499.8" y="144.2" width="6.0" height="0.5" rx="1" fill="#fcfcfb" stroke="#199e70" stroke-width="1.5"/>
<line x1="512.3" y1="144.2" x2="512.3" y2="144.2" stroke="#199e70" stroke-width="1"/>
<rect x="509.3" y="144.2" width="6.0" height="0.5" rx="1" fill="#fcfcfb" stroke="#199e70" stroke-width="1.5"/>
<line x1="521.8" y1="144.2" x2="521.8" y2="144.2" stroke="#199e70" stroke-width="1"/>
<rect x="518.8" y="144.2" width="6.0" height="0.5" rx="1" fill="#fcfcfb" stroke="#199e70" stroke-width="1.5"/>
<line x1="531.3" y1="144.2" x2="531.3" y2="144.2" stroke="#199e70" stroke-width="1"/>
<rect x="528.3" y="144.2" width="6.0" height="0.5" rx="1" fill="#fcfcfb" stroke="#199e70" stroke-width="1.5"/>
<line x1="540.7" y1="144.2" x2="540.7" y2="144.2" stroke="#199e70" stroke-width="1"/>
<rect x="537.8" y="144.2" width="6.0" height="0.5" rx="1" fill="#fcfcfb" stroke="#199e70" stroke-width="1.5"/>
<line x1="550.2" y1="144.2" x2="550.2" y2="144.2" stroke="#199e70" stroke-width="1"/>
<rect x="547.2" y="144.2" width="6.0" height="0.5" rx="1" fill="#fcfcfb" stroke="#199e70" stroke-width="1.5"/>
<line x1="559.7" y1="144.2" x2="559.7" y2="144.2" stroke="#199e70" stroke-width="1"/>
<rect x="556.7" y="144.2" width="6.0" height="0.5" rx="1" fill="#fcfcfb" stroke="#199e70" stroke-width="1.5"/>
<text x="559.7" y="408.0" text-anchor="middle" font-family="system-ui, -apple-system, 'Segoe UI', sans-serif" font-size="11" fill="#898781">Sep 14</text>
<line x1="569.2" y1="144.2" x2="569.2" y2="144.2" stroke="#199e70" stroke-width="1"/>
<rect x="566.2" y="144.2" width="6.0" height="0.5" rx="1" fill="#fcfcfb" stroke="#199e70" stroke-width="1.5"/>
<line x1="578.7" y1="144.2" x2="578.7" y2="144.2" stroke="#199e70" stroke-width="1"/>
<rect x="575.7" y="144.2" width="6.0" height="0.5" rx="1" fill="#fcfcfb" stroke="#199e70" stroke-width="1.5"/>
<line x1="588.1" y1="144.2" x2="588.1" y2="144.2" stroke="#199e70" stroke-width="1"/>
<rect x="585.2" y="144.2" width="6.0" height="0.5" rx="1" fill="#fcfcfb" stroke="#199e70" stroke-width="1.5"/>
<line x1="597.6" y1="144.2" x2="597.6" y2="144.2" stroke="#199e70" stroke-width="1"/>
<rect x="594.6" y="144.2" width="6.0" height="0.5" rx="1" fill="#fcfcfb" stroke="#199e70" stroke-width="1.5"/>
<line x1="607.1" y1="126.6" x2="607.1" y2="144.2" stroke="#199e70" stroke-width="1"/>
<rect x="604.1" y="127.4" width="6.0" height="16.1" rx="1" fill="#fcfcfb" stroke="#199e70" stroke-width="1.5"/>
<line x1="616.6" y1="109.1" x2="616.6" y2="126.6" stroke="#199e70" stroke-width="1"/>
<rect x="613.6" y="109.8" width="6.0" height="16.1" rx="1" fill="#fcfcfb" stroke="#199e70" stroke-width="1.5"/>
<line x1="626.1" y1="109.1" x2="626.1" y2="109.1" stroke="#199e70" stroke-width="1"/>
<rect x="623.1" y="109.1" width="6.0" height="0.5" rx="1" fill="#fcfcfb" stroke="#199e70" stroke-width="1.5"/>
<line x1="635.6" y1="109.1" x2="635.6" y2="109.1" stroke="#199e70" stroke-width="1"/>
<rect x="632.6" y="109.1" width="6.0" height="0.5" rx="1" fill="#fcfcfb" stroke="#199e70" stroke-width="1.5"/>
<line x1="645.0" y1="109.1" x2="645.0" y2="109.1" stroke="#199e70" stroke-width="1"/>
<rect x="642.0" y="109.1" width="6.0" height="0.5" rx="1" fill="#fcfcfb" stroke="#199e70" stroke-width="1.5"/>
<line x1="654.5" y1="109.1" x2="654.5" y2="109.1" stroke="#199e70" stroke-width="1"/>
<rect x="651.5" y="109.1" width="6.0" height="0.5" rx="1" fill="#fcfcfb" stroke="#199e70" stroke-width="1.5"/>
<line x1="664.0" y1="109.1" x2="664.0" y2="109.1" stroke="#199e70" stroke-width="1"/>
<rect x="661.0" y="109.1" width="6.0" height="0.5" rx="1" fill="#fcfcfb" stroke="#199e70" stroke-width="1.5"/>
<line x1="673.5" y1="109.1" x2="673.5" y2="109.1" stroke="#199e70" stroke-width="1"/>
<rect x="670.5" y="109.1" width="6.0" height="0.5" rx="1" fill="#fcfcfb" stroke="#199e70" stroke-width="1.5"/>
<line x1="683.0" y1="109.1" x2="683.0" y2="109.1" stroke="#199e70" stroke-width="1"/>
<rect x="680.0" y="109.1" width="6.0" height="0.5" rx="1" fill="#fcfcfb" stroke="#199e70" stroke-width="1.5"/>
<line x1="692.4" y1="109.1" x2="692.4" y2="109.1" stroke="#199e70" stroke-width="1"/>
<rect x="689.5" y="109.1" width="6.0" height="0.5" rx="1" fill="#fcfcfb" stroke="#199e70" stroke-width="1.5"/>
<text x="692.4" y="408.0" text-anchor="middle" font-family="system-ui, -apple-system, 'Segoe UI', sans-serif" font-size="11" fill="#898781">Sep 28</text>
<line x1="701.9" y1="109.1" x2="701.9" y2="109.1" stroke="#199e70" stroke-width="1"/>
<rect x="698.9" y="109.1" width="6.0" height="0.5" rx="1" fill="#fcfcfb" stroke="#199e70" stroke-width="1.5"/>
<line x1="711.4" y1="109.1" x2="711.4" y2="109.1" stroke="#199e70" stroke-width="1"/>
<rect x="708.4" y="109.1" width="6.0" height="0.5" rx="1" fill="#fcfcfb" stroke="#199e70" stroke-width="1.5"/>
<line x1="720.9" y1="109.1" x2="720.9" y2="109.1" stroke="#199e70" stroke-width="1"/>
<rect x="717.9" y="109.1" width="6.0" height="0.5" rx="1" fill="#fcfcfb" stroke="#199e70" stroke-width="1.5"/>
<line x1="730.4" y1="109.1" x2="730.4" y2="109.1" stroke="#199e70" stroke-width="1"/>
<rect x="727.4" y="109.1" width="6.0" height="0.5" rx="1" fill="#fcfcfb" stroke="#199e70" stroke-width="1.5"/>
<line x1="739.9" y1="109.1" x2="739.9" y2="109.1" stroke="#199e70" stroke-width="1"/>
<rect x="736.9" y="109.1" width="6.0" height="0.5" rx="1" fill="#fcfcfb" stroke="#199e70" stroke-width="1.5"/>
<line x1="749.3" y1="109.1" x2="749.3" y2="109.1" stroke="#199e70" stroke-width="1"/>
<rect x="746.3" y="109.1" width="6.0" height="0.5" rx="1" fill="#fcfcfb" stroke="#199e70" stroke-width="1.5"/>
<line x1="758.8" y1="109.1" x2="758.8" y2="109.1" stroke="#199e70" stroke-width="1"/>
<rect x="755.8" y="109.1" width="6.0" height="0.5" rx="1" fill="#fcfcfb" stroke="#199e70" stroke-width="1.5"/>
<line x1="768.3" y1="109.1" x2="768.3" y2="109.1" stroke="#199e70" stroke-width="1"/>
<rect x="765.3" y="109.1" width="6.0" height="0.5" rx="1" fill="#fcfcfb" stroke="#199e70" stroke-width="1.5"/>
<line x1="777.8" y1="109.1" x2="777.8" y2="109.1" stroke="#199e70" stroke-width="1"/>
<rect x="774.8" y="109.1" width="6.0" height="0.5" rx="1" fill="#fcfcfb" stroke="#199e70" stroke-width="1.5"/>
<line x1="787.3" y1="109.1" x2="787.3" y2="109.1" stroke="#199e70" stroke-width="1"/>
<rect x="784.3" y="109.1" width="6.0" height="0.5" rx="1" fill="#fcfcfb" stroke="#199e70" stroke-width="1.5"/>
<rect x="0.5" y="0.5" width="879" height="439" rx="8" fill="none" stroke="rgba(11,11,11,0.10)"/>
</svg>
