<svg xmlns="http://www.w3.org/2000/svg" width="880" height="440" viewBox="0 0 880 440" role="img" aria-label="Daily candlestick chart of GitHub stars for Mukbeast4/go-mt5">
<rect width="880" height="440" rx="8" fill="#1a1a19"/>
<text x="24" y="42" font-family="system-ui, -apple-system, 'Segoe UI', sans-serif" font-size="13" fill="#c3c2b7">Mukbeast4/go-mt5 · Daily</text>
<text x="24" y="74" font-family="system-ui, -apple-system, 'Segoe UI', sans-serif"><tspan font-size="28" font-weight="600" fill="#ffffff">8</tspan><tspan dx="8" font-size="13" fill="#c3c2b7">stars</tspan></text>
<line x1="24.0" y1="390.0" x2="792.0" y2="390.0" stroke="#2c2c2a" stroke-width="1"/>
<text x="802.0" y="390.0" dy="0.35em" font-family="system-ui, -apple-system, 'Segoe UI', sans-serif" font-size="11" fill="#898781" style="font-variant-numeric: tabular-nums">0</text>
<line x1="24.0" y1="329.6" x2="792.0" y2="329.6" stroke="#2c2c2a" stroke-width="1"/>
<text x="802.0" y="329.6" dy="0.35em" font-family="system-ui, -apple-system, 'Segoe UI', sans-serif" font-size="11" fill="#898781" style="font-variant-numeric: tabular-nums">2</text>
<line x1="24.0" y1="269.2" x2="792.0" y2="269.2" stroke="#2c2c2a" stroke-width="1"/>
<text x="802.0" y="269.2" dy="0.35em" font-family="system-ui, -apple-system, 'Segoe UI', sans-serif" font-size="11" fill="#898781" style="font-variant-numeric: tabular-nums">4</text>
<line x1="24.0" y1="208.8" x2="792.0" y2="208.8" stroke="#2c2c2a" stroke-width="1"/>
<text x="802.0" y="208.8" dy="0.35em" font-family="system-ui, -apple-system, 'Segoe UI', sans-serif" font-size="11" fill="#898781" style="font-variant-numeric: tabular-nums">6</text>
<line x1="24.0" y1="148.4" x2="792.0" y2="148.4" stroke="#2c2c2a" stroke-width="1"/>
<text x="802.0" y="148.4" dy="0.35em" font-family="system-ui, -apple-system, 'Segoe UI', sans-serif" font-size="11" fill="#898781" style="font-variant-numeric: tabular-nums">8</text>
<line x1="24.0" y1="88.0" x2="792.0" y2="88.0" stroke="#2c2c2a" stroke-width="1"/>
<text x="802.0" y="88.0" dy="0.35em" font-family="system-ui, -apple-system, 'Segoe UI', sans-serif" font-size="11" fill="#898781" style="font-variant-numeric: tabular-nums">10</text>
<line x1="40.7" y1="359.8" x2="40.7" y2="359.8" stroke="#199e70" stroke-width="1"/>
<rect x="29.4" y="359.8" width="22.5" height="0.5" rx="1" fill="#1a1a19" stroke="#199e70" stroke-width="1.5"/>
<text x="40.7" y="408.0" text-anchor="middle" font-family="system-ui, -apple-system, 'Segoe UI', sans-serif" font-size="11" fill="#898781">Mar 26</text>
<line x1="74.1" y1="299.4" x2="74.1" y2="359.8" stroke="#199e70" stroke-width="1"/>
<rect x="62.8" y="300.1" width="22.5" height="58.9" rx="1" fill="#1a1a19" stroke="#199e70" stroke-width="1.5"/>
<line x1="107.5" y1="269.2" x2="107.5" y2="299.4" stroke="#199e70" stroke-width="1"/>
<rect x="96.2" y="269.9" width="22.5" height="28.7" rx="1" fill="#1a1a19" stroke="#199e70" stroke-width="1.5"/>
<line x1="140.9" y1="239.0" x2="140.9" y2="269.2" stroke="#199e70" stroke-width="1"/>
<rect x="129.6" y="239.8" width="22.5" height="28.7" rx="1" fill="#1a1a19" stroke="#199e70" stroke-width="1.5"/>
<line x1="174.3" y1="208.8" x2="174.3" y2="239.0" stroke="#199e70" stroke-width="1"/>
<rect x="163.0" y="209.6" width="22.5" height="28.7" rx="1" fill="#1a1a19" stroke="#199e70" stroke-width="1.5"/>
<text x="174.3" y="408.0" text-anchor="middle" font-family="system-ui, -apple-system, 'Segoe UI', sans-serif" font-size="11" fill="#898781">May 30</text>
<line x1="207.7" y1="178.6" x2="207.7" y2="208.8" stroke="#199e70" stroke-width="1"/>
<rect x="196.4" y="179.4" width="22.5" height="28.7" rx="1" fill="#1a1a19" stroke="#199e70" stroke-width="1.5"/>
<line x1="241.0" y1="148.4" x2="241.0" y2="178.6" stroke="#199e70" stroke-width="1"/>
<rect x="229.8" y="149.1" width="22.5" height="28.7" rx="1" fill="#1a1a19" stroke="#199e70" stroke-width="1.5"/>
<line x1="274.4" y1="118.2" x2="274.4" y2="148.4" stroke="#199e70" stroke-width="1"/>
<rect x="263.2" y="118.9" width="22.5" height="28.7" rx="1" fill="#1a1a19" stroke="#199e70" stroke-width="1.5"/>
<line x1="307.8" y1="118.2" x2="307.8" y2="118.2" stroke="#199e70" stroke-width="1"/>
<rect x="296.6" y="118.2" width="22.5" height="0.5" rx="1" fill="#1a1a19" stroke="#199e70" stroke-width="1.5"/>
<text x="307.8" y="408.0" text-anchor="middle" font-family="system-ui, -apple-system, 'Segoe UI', sans-serif" font-size="11" fill="#898781">Jul 28</text>
<line x1="341.2" y1="118.2" x2="341.2" y2="148.4" stroke="#d03b3b" stroke-width="1"/>
<rect x="329.2" y="118.2" width="24.0" height="30.2" rx="1" fill="#d03b3b"/>
<line x1="374.6" y1="148.4" x2="374.6" y2="148.4" stroke="#199e70" stroke-width="1"/>
<rect x="363.4" y="148.4" width="22.5" height="0.5" rx="1" fill="#1a1a19" stroke="#199e70" stroke-width="1.5"/>
<line x1="408.0" y1="148.4" x2="408.0" y2="148.4" stroke="#199e70" stroke-width="1"/>
<rect x="396.8" y="148.4" width="22.5" height="0.5" rx="1" fill="#1a1a19" stroke="#199e70" stroke-width="1.5"/>
<line x1="441.4" y1="148.4" x2="441.4" y2="148.4" stroke="#199e70" stroke-width="1"/>
<rect x="430.1" y="148.4" width="22.5" height="0.5" rx="1" fill="#1a1a19" stroke="#199e70" stroke-width="1.5"/>
<text x="441.4" y="408.0" text-anchor="middle" font-family="system-ui, -apple-system, 'Segoe UI', sans-serif" font-size="11" fill="#898781">Aug 1</text>
<line x1="474.8" y1="148.4" x2="474.8" y2="148.4" stroke="#199e70" stroke-width="1"/>
<rect x="463.5" y="148.4" width="22.5" height="0.5" rx="1" fill="#1a1a19" stroke="#199e70" stroke-width="1.5"/>
<line x1="508.2" y1="148.4" x2="508.2" y2="148.4" stroke="#199e70" stroke-width="1"/>
<rect x="496.9" y="148.4" width="22.5" height="0.5" rx="1" fill="#1a1a19" stroke="#199e70" stroke-width="1.5"/>
<line x1="541.6" y1="148.4" x2="541.6" y2="148.4" stroke="#199e70" stroke-width="1"/>
<rect x="530.3" y="148.4" width="22.5" height="0.5" rx="1" fill="#1a1a19" stroke="#199e70" stroke-width="1.5"/>
<line x1="575.0" y1="148.4" x2="575.0" y2="148.4" stroke="#199e70" stroke-width="1"/>
<rect x="563.7" y="148.4" width="22.5" height="0.5" rx="1" fill="#1a1a19" stroke="#199e70" stroke-width="1.5"/>
<text x="575.0" y="408.0" text-anchor="middle" font-family="system-ui, -apple-system, 'Segoe UI', sans-serif" font-size="11" fill="#898781">Aug 5</text>
<line x1="608.3" y1="148.4" x2="608.3" y2="148.4" stroke="#199e70" stroke-width="1"/>
<rect x="597.1" y="148.4" width="22.5" height="0.5" rx="1" fill="#1a1a19" stroke="#199e70" stroke-width="1.5"/>
<line x1="641.7" y1="148.4" x2="641.7" y2="148.4" stroke="#199e70" stroke-width="1"/>
<rect x="630.5" y="148.4" width="22.5" height="0.5" rx="1" fill="#1a1a19" stroke="#199e70" stroke-width="1.5"/>
<line x1="675.1" y1="148.4" x2="675.1" y2="148.4" stroke="#199e70" stroke-width="1"/>
<rect x="663.9" y="148.4" width="22.5" height="0.5" rx="1" fill="#1a1a19" stroke="#199e70" stroke-width="1.5"/>
<line x1="708.5" y1="148.4" x2="708.5" y2="148.4" stroke="#199e70" stroke-width="1"/>
<rect x="697.3" y="148.4" width="22.5" height="0.5" rx="1" fill="#1a1a19" stroke="#199e70" stroke-width="1.5"/>
<text x="708.5" y="408.0" text-anchor="middle" font-family="system-ui, -apple-system, 'Segoe UI', sans-serif" font-size="11" fill="#898781">Aug 9</text>
<line x1="741.9" y1="148.4" x2="741.9" y2="148.4" stroke="#199e70" stroke-width="1"/>
<rect x="730.7" y="148.4" width="22.5" height="0.5" rx="1" fill="#1a1a19" stroke="#199e70" stroke-width="1.5"/>
<line x1="775.3" y1="148.4" x2="775.3" y2="148.4" stroke="#199e70" stroke-width="1"/>
<rect x="764.1" y="148.4" width="22.5" height="0.5" rx="1" fill="#1a1a19" stroke="#199e70" stroke-width="1.5"/>
<rect x="0.5" y="0.5" width="879" height="439" rx="8" fill="none" stroke="rgba(255,255,255,0.10)"/>
</svg>
