<svg xmlns="http://www.w3.org/2000/svg" width="880" height="440" viewBox="0 0 880 440" role="img" aria-label="Monthly candlestick chart of GitHub stars for Mukbeast4/go-mt5">
<rect width="880" height="440" rx="8" fill="#fcfcfb"/>
<text x="24" y="42" font-family="system-ui, -apple-system, 'Segoe UI', sans-serif" font-size="13" fill="#52514e">Mukbeast4/go-mt5 · Monthly</text>
<text x="24" y="74" font-family="system-ui, -apple-system, 'Segoe UI', sans-serif"><tspan font-size="28" font-weight="600" fill="#0b0b0b">15</tspan><tspan dx="8" font-size="13" fill="#52514e">stars</tspan><tspan dx="12" font-size="13" fill="#006300">+2 (+15.4%) this month</tspan></text>
<line x1="24.0" y1="390.0" x2="792.0" y2="390.0" stroke="#e1e0d9" stroke-width="1"/>
<text x="802.0" y="390.0" dy="0.35em" font-family="system-ui, -apple-system, 'Segoe UI', sans-serif" font-size="11" fill="#898781" style="font-variant-numeric: tabular-nums">0</text>
<line x1="24.0" y1="296.3" x2="792.0" y2="296.3" stroke="#e1e0d9" stroke-width="1"/>
<text x="802.0" y="296.3" dy="0.35em" font-family="system-ui, -apple-system, 'Segoe UI', sans-serif" font-size="11" fill="#898781" style="font-variant-numeric: tabular-nums">5</text>
<line x1="24.0" y1="202.7" x2="792.0" y2="202.7" stroke="#e1e0d9" stroke-width="1"/>
<text x="802.0" y="202.7" dy="0.35em" font-family="system-ui, -apple-system, 'Segoe UI', sans-serif" font-size="11" fill="#898781" style="font-variant-numeric: tabular-nums">10</text>
<line x1="24.0" y1="109.0" x2="792.0" y2="109.0" stroke="#e1e0d9" stroke-width="1"/>
<text x="802.0" y="109.0" dy="0.35em" font-family="system-ui, -apple-system, 'Segoe UI', sans-serif" font-size="11" fill="#898781" style="font-variant-numeric: tabular-nums">15</text>
<line x1="78.9" y1="371.3" x2="78.9" y2="371.3" stroke="#199e70" stroke-width="1"/>
<rect x="67.6" y="371.3" width="22.5" height="0.5" rx="1" fill="#fcfcfb" stroke="#199e70" stroke-width="1.5"/>
<text x="78.9" y="408.0" text-anchor="middle" font-family="system-ui, -apple-system, 'Segoe UI', sans-serif" font-size="11" fill="#898781">Mar 2026</text>
<line x1="188.6" y1="333.8" x2="188.6" y2="371.3" stroke="#199e70" stroke-width="1"/>
<rect x="177.3" y="334.5" width="22.5" height="36.0" rx="1" fill="#fcfcfb" stroke="#199e70" stroke-width="1.5"/>
<line x1="298.3" y1="277.6" x2="298.3" y2="333.8" stroke="#199e70" stroke-width="1"/>
<rect x="287.0" y="278.3" width="22.5" height="54.7" rx="1" fill="#fcfcfb" stroke="#199e70" stroke-width="1.5"/>
<text x="298.3" y="408.0" text-anchor="middle" font-family="system-ui, -apple-system, 'Segoe UI', sans-serif" font-size="11" fill="#898781">May 2026</text>
<line x1="408.0" y1="221.4" x2="408.0" y2="277.6" stroke="#199e70" stroke-width="1"/>
<rect x="396.8" y="222.1" width="22.5" height="54.7" rx="1" fill="#fcfcfb" stroke="#199e70" stroke-width="1.5"/>
<line x1="517.7" y1="221.4" x2="517.7" y2="240.1" stroke="#d03b3b" stroke-width="1"/>
<rect x="505.7" y="221.4" width="24.0" height="18.7" rx="1" fill="#d03b3b"/>
<text x="517.7" y="408.0" text-anchor="middle" font-family="system-ui, -apple-system, 'Segoe UI', sans-serif" font-size="11" fill="#898781">Jul 2026</text>
<line x1="627.4" y1="146.5" x2="627.4" y2="240.1" stroke="#199e70" stroke-width="1"/>
<rect x="616.2" y="147.2" width="22.5" height="92.2" rx="1" fill="#fcfcfb" stroke="#199e70" stroke-width="1.5"/>
<line x1="737.1" y1="109.0" x2="737.1" y2="146.5" stroke="#199e70" stroke-width="1"/>
<rect x="725.9" y="109.7" width="22.5" height="36.0" rx="1" fill="#fcfcfb" stroke="#199e70" stroke-width="1.5"/>
<text x="737.1" y="408.0" text-anchor="middle" font-family="system-ui, -apple-system, 'Segoe UI', sans-serif" font-size="11" fill="#898781">Sep 2026</text>
<rect x="0.5" y="0.5" width="879" height="439" rx="8" fill="none" stroke="rgba(11,11,11,0.10)"/>
</svg>
