<svg xmlns="http://www.w3.org/2000/svg" width="880" height="440" viewBox="0 0 880 440" role="img" aria-label="Daily candlestick chart of GitHub stars for Mukbeast4/go-mt5">
<rect width="880" height="440" rx="8" fill="#1a1a19"/>
<text x="24" y="42" font-family="system-ui, -apple-system, 'Segoe UI', sans-serif" font-size="13" fill="#c3c2b7">Mukbeast4/go-mt5 · Daily</text>
<text x="24" y="74" font-family="system-ui, -apple-system, 'Segoe UI', sans-serif"><tspan font-size="28" font-weight="600" fill="#ffffff">14</tspan><tspan dx="8" font-size="13" fill="#c3c2b7">stars</tspan></text>
<line x1="24.0" y1="390.0" x2="792.0" y2="390.0" stroke="#2c2c2a" stroke-width="1"/>
<text x="802.0" y="390.0" dy="0.35em" font-family="system-ui, -apple-system, 'Segoe UI', sans-serif" font-size="11" fill="#898781" style="font-variant-numeric: tabular-nums">0</text>
<line x1="24.0" y1="289.6" x2="792.0" y2="289.6" stroke="#2c2c2a" stroke-width="1"/>
<text x="802.0" y="289.6" dy="0.35em" font-family="system-ui, -apple-system, 'Segoe UI', sans-serif" font-size="11" fill="#898781" style="font-variant-numeric: tabular-nums">5</text>
<line x1="24.0" y1="189.2" x2="792.0" y2="189.2" stroke="#2c2c2a" stroke-width="1"/>
<text x="802.0" y="189.2" dy="0.35em" font-family="system-ui, -apple-system, 'Segoe UI', sans-serif" font-size="11" fill="#898781" style="font-variant-numeric: tabular-nums">10</text>
<line x1="24.0" y1="88.8" x2="792.0" y2="88.8" stroke="#2c2c2a" stroke-width="1"/>
<text x="802.0" y="88.8" dy="0.35em" font-family="system-ui, -apple-system, 'Segoe UI', sans-serif" font-size="11" fill="#898781" style="font-variant-numeric: tabular-nums">15</text>
<line x1="30.9" y1="369.9" x2="30.9" y2="369.9" stroke="#199e70" stroke-width="1"/>
<rect x="25.8" y="369.9" width="10.2" height="0.5" rx="1" fill="#1a1a19" stroke="#199e70" stroke-width="1.5"/>
<text x="30.9" y="408.0" text-anchor="middle" font-family="system-ui, -apple-system, 'Segoe UI', sans-serif" font-size="11" fill="#898781">Mar 26</text>
<line x1="44.6" y1="329.8" x2="44.6" y2="369.9" stroke="#199e70" stroke-width="1"/>
<rect x="39.5" y="330.5" width="10.2" height="38.7" rx="1" fill="#1a1a19" stroke="#199e70" stroke-width="1.5"/>
<line x1="58.3" y1="309.7" x2="58.3" y2="329.8" stroke="#199e70" stroke-width="1"/>
<rect x="53.2" y="310.4" width="10.2" height="18.6" rx="1" fill="#1a1a19" stroke="#199e70" stroke-width="1.5"/>
<line x1="72.0" y1="289.6" x2="72.0" y2="309.7" stroke="#199e70" stroke-width="1"/>
<rect x="66.9" y="290.4" width="10.2" height="18.6" rx="1" fill="#1a1a19" stroke="#199e70" stroke-width="1.5"/>
<line x1="85.7" y1="269.5" x2="85.7" y2="289.6" stroke="#199e70" stroke-width="1"/>
<rect x="80.6" y="270.3" width="10.2" height="18.6" rx="1" fill="#1a1a19" stroke="#199e70" stroke-width="1.5"/>
<line x1="99.4" y1="249.4" x2="99.4" y2="269.5" stroke="#199e70" stroke-width="1"/>
<rect x="94.3" y="250.2" width="10.2" height="18.6" rx="1" fill="#1a1a19" stroke="#199e70" stroke-width="1.5"/>
<line x1="113.1" y1="229.4" x2="113.1" y2="249.4" stroke="#199e70" stroke-width="1"/>
<rect x="108.0" y="230.1" width="10.2" height="18.6" rx="1" fill="#1a1a19" stroke="#199e70" stroke-width="1.5"/>
<line x1="126.9" y1="209.3" x2="126.9" y2="229.4" stroke="#199e70" stroke-width="1"/>
<rect x="121.7" y="210.0" width="10.2" height="18.6" rx="1" fill="#1a1a19" stroke="#199e70" stroke-width="1.5"/>
<line x1="140.6" y1="209.3" x2="140.6" y2="209.3" stroke="#199e70" stroke-width="1"/>
<rect x="135.5" y="209.3" width="10.2" height="0.5" rx="1" fill="#1a1a19" stroke="#199e70" stroke-width="1.5"/>
<line x1="154.3" y1="209.3" x2="154.3" y2="229.4" stroke="#d03b3b" stroke-width="1"/>
<rect x="148.4" y="209.3" width="11.7" height="20.1" rx="1" fill="#d03b3b"/>
<line x1="168.0" y1="229.4" x2="168.0" y2="229.4" stroke="#199e70" stroke-width="1"/>
<rect x="162.9" y="229.4" width="10.2" height="0.5" rx="1" fill="#1a1a19" stroke="#199e70" stroke-width="1.5"/>
<text x="168.0" y="408.0" text-anchor="middle" font-family="system-ui, -apple-system, 'Segoe UI', sans-serif" font-size="11" fill="#898781">Jul 30</text>
<line x1="181.7" y1="229.4" x2="181.7" y2="229.4" stroke="#199e70" stroke-width="1"/>
<rect x="176.6" y="229.4" width="10.2" height="0.5" rx="1" fill="#1a1a19" stroke="#199e70" stroke-width="1.5"/>
<line x1="195.4" y1="229.4" x2="195.4" y2="229.4" stroke="#199e70" stroke-width="1"/>
<rect x="190.3" y="229.4" width="10.2" height="0.5" rx="1" fill="#1a1a19" stroke="#199e70" stroke-width="1.5"/>
<line x1="209.1" y1="229.4" x2="209.1" y2="229.4" stroke="#199e70" stroke-width="1"/>
<rect x="204.0" y="229.4" width="10.2" height="0.5" rx="1" fill="#1a1a19" stroke="#199e70" stroke-width="1.5"/>
<line x1="222.9" y1="229.4" x2="222.9" y2="229.4" stroke="#199e70" stroke-width="1"/>
<rect x="217.7" y="229.4" width="10.2" height="0.5" rx="1" fill="#1a1a19" stroke="#199e70" stroke-width="1.5"/>
<line x1="236.6" y1="229.4" x2="236.6" y2="229.4" stroke="#199e70" stroke-width="1"/>
<rect x="231.5" y="229.4" width="10.2" height="0.5" rx="1" fill="#1a1a19" stroke="#199e70" stroke-width="1.5"/>
<line x1="250.3" y1="229.4" x2="250.3" y2="229.4" stroke="#199e70" stroke-width="1"/>
<rect x="245.2" y="229.4" width="10.2" height="0.5" rx="1" fill="#1a1a19" stroke="#199e70" stroke-width="1.5"/>
<line x1="264.0" y1="229.4" x2="264.0" y2="229.4" stroke="#199e70" stroke-width="1"/>
<rect x="258.9" y="229.4" width="10.2" height="0.5" rx="1" fill="#1a1a19" stroke="#199e70" stroke-width="1.5"/>
<line x1="277.7" y1="229.4" x2="277.7" y2="229.4" stroke="#199e70" stroke-width="1"/>
<rect x="272.6" y="229.4" width="10.2" height="0.5" rx="1" fill="#1a1a19" stroke="#199e70" stroke-width="1.5"/>
<line x1="291.4" y1="229.4" x2="291.4" y2="229.4" stroke="#199e70" stroke-width="1"/>
<rect x="286.3" y="229.4" width="10.2" height="0.5" rx="1" fill="#1a1a19" stroke="#199e70" stroke-width="1.5"/>
<line x1="305.1" y1="229.4" x2="305.1" y2="229.4" stroke="#199e70" stroke-width="1"/>
<rect x="300.0" y="229.4" width="10.2" height="0.5" rx="1" fill="#1a1a19" stroke="#199e70" stroke-width="1.5"/>
<text x="305.1" y="408.0" text-anchor="middle" font-family="system-ui, -apple-system, 'Segoe UI', sans-serif" font-size="11" fill="#898781">Aug 9</text>
<line x1="318.9" y1="229.4" x2="318.9" y2="229.4" stroke="#199e70" stroke-width="1"/>
<rect x="313.8" y="229.4" width="10.2" height="0.5" rx="1" fill="#1a1a19" stroke="#199e70" stroke-width="1.5"/>
<line x1="332.6" y1="229.4" x2="332.6" y2="229.4" stroke="#199e70" stroke-width="1"/>
<rect x="327.5" y="229.4" width="10.2" height="0.5" rx="1" fill="#1a1a19" stroke="#199e70" stroke-width="1.5"/>
<line x1="346.3" y1="229.4" x2="346.3" y2="229.4" stroke="#199e70" stroke-width="1"/>
<rect x="341.2" y="229.4" width="10.2" height="0.5" rx="1" fill="#1a1a19" stroke="#199e70" stroke-width="1.5"/>
<line x1="360.0" y1="229.4" x2="360.0" y2="229.4" stroke="#199e70" stroke-width="1"/>
<rect x="354.9" y="229.4" width="10.2" height="0.5" rx="1" fill="#1a1a19" stroke="#199e70" stroke-width="1.5"/>
<line x1="373.7" y1="229.4" x2="373.7" y2="229.4" stroke="#199e70" stroke-width="1"/>
<rect x="368.6" y="229.4" width="10.2" height="0.5" rx="1" fill="#1a1a19" stroke="#199e70" stroke-width="1.5"/>
<line x1="387.4" y1="229.4" x2="387.4" y2="229.4" stroke="#199e70" stroke-width="1"/>
<rect x="382.3" y="229.4" width="10.2" height="0.5" rx="1" fill="#1a1a19" stroke="#199e70" stroke-width="1.5"/>
<line x1="401.1" y1="229.4" x2="401.1" y2="229.4" stroke="#199e70" stroke-width="1"/>
<rect x="396.0" y="229.4" width="10.2" height="0.5" rx="1" fill="#1a1a19" stroke="#199e70" stroke-width="1.5"/>
<line x1="414.9" y1="229.4" x2="414.9" y2="229.4" stroke="#199e70" stroke-width="1"/>
<rect x="409.8" y="229.4" width="10.2" height="0.5" rx="1" fill="#1a1a19" stroke="#199e70" stroke-width="1.5"/>
<line x1="428.6" y1="209.3" x2="428.6" y2="229.4" stroke="#199e70" stroke-width="1"/>
<rect x="423.5" y="210.0" width="10.2" height="18.6" rx="1" fill="#1a1a19" stroke="#199e70" stroke-width="1.5"/>
<line x1="442.3" y1="209.3" x2="442.3" y2="209.3" stroke="#199e70" stroke-width="1"/>
<rect x="437.2" y="209.3" width="10.2" height="0.5" rx="1" fill="#1a1a19" stroke="#199e70" stroke-width="1.5"/>
<text x="442.3" y="408.0" text-anchor="middle" font-family="system-ui, -apple-system, 'Segoe UI', sans-serif" font-size="11" fill="#898781">Aug 19</text>
<line x1="456.0" y1="209.3" x2="456.0" y2="209.3" stroke="#199e70" stroke-width="1"/>
<rect x="450.9" y="209.3" width="10.2" height="0.5" rx="1" fill="#1a1a19" stroke="#199e70" stroke-width="1.5"/>
<line x1="469.7" y1="209.3" x2="469.7" y2="209.3" stroke="#199e70" stroke-width="1"/>
<rect x="464.6" y="209.3" width="10.2" height="0.5" rx="1" fill="#1a1a19" stroke="#199e70" stroke-width="1.5"/>
<line x1="483.4" y1="209.3" x2="483.4" y2="209.3" stroke="#199e70" stroke-width="1"/>
<rect x="478.3" y="209.3" width="10.2" height="0.5" rx="1" fill="#1a1a19" stroke="#199e70" stroke-width="1.5"/>
<line x1="497.1" y1="189.2" x2="497.1" y2="209.3" stroke="#199e70" stroke-width="1"/>
<rect x="492.0" y="190.0" width="10.2" height="18.6" rx="1" fill="#1a1a19" stroke="#199e70" stroke-width="1.5"/>
<line x1="510.9" y1="149.0" x2="510.9" y2="189.2" stroke="#199e70" stroke-width="1"/>
<rect x="505.8" y="149.8" width="10.2" height="38.7" rx="1" fill="#1a1a19" stroke="#199e70" stroke-width="1.5"/>
<line x1="524.6" y1="149.0" x2="524.6" y2="149.0" stroke="#199e70" stroke-width="1"/>
<rect x="519.5" y="149.0" width="10.2" height="0.5" rx="1" fill="#1a1a19" stroke="#199e70" stroke-width="1.5"/>
<line x1="538.3" y1="149.0" x2="538.3" y2="149.0" stroke="#199e70" stroke-width="1"/>
<rect x="533.2" y="149.0" width="10.2" height="0.5" rx="1" fill="#1a1a19" stroke="#199e70" stroke-width="1.5"/>
<line x1="552.0" y1="129.0" x2="552.0" y2="149.0" stroke="#199e70" stroke-width="1"/>
<rect x="546.9" y="129.7" width="10.2" height="18.6" rx="1" fill="#1a1a19" stroke="#199e70" stroke-width="1.5"/>
<line x1="565.7" y1="129.0" x2="565.7" y2="129.0" stroke="#199e70" stroke-width="1"/>
<rect x="560.6" y="129.0" width="10.2" height="0.5" rx="1" fill="#1a1a19" stroke="#199e70" stroke-width="1.5"/>
<line x1="579.4" y1="129.0" x2="579.4" y2="129.0" stroke="#199e70" stroke-width="1"/>
<rect x="574.3" y="129.0" width="10.2" height="0.5" rx="1" fill="#1a1a19" stroke="#199e70" stroke-width="1.5"/>
<text x="579.4" y="408.0" text-anchor="middle" font-family="system-ui, -apple-system, 'Segoe UI', sans-serif" font-size="11" fill="#898781">Aug 29</text>
<line x1="593.1" y1="129.0" x2="593.1" y2="129.0" stroke="#199e70" stroke-width="1"/>
<rect x="588.0" y="129.0" width="10.2" height="0.5" rx="1" fill="#1a1a19" stroke="#199e70" stroke-width="1.5"/>
<line x1="606.9" y1="129.0" x2="606.9" y2="129.0" stroke="#199e70" stroke-width="1"/>
<rect x="601.7" y="129.0" width="10.2" height="0.5" rx="1" fill="#1a1a19" stroke="#199e70" stroke-width="1.5"/>
<line x1="620.6" y1="129.0" x2="620.6" y2="129.0" stroke="#199e70" stroke-width="1"/>
<rect x="615.5" y="129.0" width="10.2" height="0.5" rx="1" fill="#1a1a19" stroke="#199e70" stroke-width="1.5"/>
<line x1="634.3" y1="129.0" x2="634.3" y2="129.0" stroke="#199e70" stroke-width="1"/>
<rect x="629.2" y="129.0" width="10.2" height="0.5" rx="1" fill="#1a1a19" stroke="#199e70" stroke-width="1.5"/>
<line x1="648.0" y1="129.0" x2="648.0" y2="129.0" stroke="#199e70" stroke-width="1"/>
<rect x="642.9" y="129.0" width="10.2" height="0.5" rx="1" fill="#1a1a19" stroke="#199e70" stroke-width="1.5"/>
<line x1="661.7" y1="129.0" x2="661.7" y2="129.0" stroke="#199e70" stroke-width="1"/>
<rect x="656.6" y="129.0" width="10.2" height="0.5" rx="1" fill="#1a1a19" stroke="#199e70" stroke-width="1.5"/>
<line x1="675.4" y1="129.0" x2="675.4" y2="129.0" stroke="#199e70" stroke-width="1"/>
<rect x="670.3" y="129.0" width="10.2" height="0.5" rx="1" fill="#1a1a19" stroke="#199e70" stroke-width="1.5"/>
<line x1="689.1" y1="129.0" x2="689.1" y2="129.0" stroke="#199e70" stroke-width="1"/>
<rect x="684.0" y="129.0" width="10.2" height="0.5" rx="1" fill="#1a1a19" stroke="#199e70" stroke-width="1.5"/>
<line x1="702.9" y1="108.9" x2="702.9" y2="129.0" stroke="#199e70" stroke-width="1"/>
<rect x="697.7" y="109.6" width="10.2" height="18.6" rx="1" fill="#1a1a19" stroke="#199e70" stroke-width="1.5"/>
<line x1="716.6" y1="108.9" x2="716.6" y2="108.9" stroke="#199e70" stroke-width="1"/>
<rect x="711.5" y="108.9" width="10.2" height="0.5" rx="1" fill="#1a1a19" stroke="#199e70" stroke-width="1.5"/>
<text x="716.6" y="408.0" text-anchor="middle" font-family="system-ui, -apple-system, 'Segoe UI', sans-serif" font-size="11" fill="#898781">Sep 8</text>
<line x1="730.3" y1="108.9" x2="730.3" y2="108.9" stroke="#199e70" stroke-width="1"/>
<rect x="725.2" y="108.9" width="10.2" height="0.5" rx="1" fill="#1a1a19" stroke="#199e70" stroke-width="1.5"/>
<line x1="744.0" y1="108.9" x2="744.0" y2="108.9" stroke="#199e70" stroke-width="1"/>
<rect x="738.9" y="108.9" width="10.2" height="0.5" rx="1" fill="#1a1a19" stroke="#199e70" stroke-width="1.5"/>
<line x1="757.7" y1="108.9" x2="757.7" y2="108.9" stroke="#199e70" stroke-width="1"/>
<rect x="752.6" y="108.9" width="10.2" height="0.5" rx="1" fill="#1a1a19" stroke="#199e70" stroke-width="1.5"/>
<line x1="771.4" y1="108.9" x2="771.4" y2="108.9" stroke="#199e70" stroke-width="1"/>
<rect x="766.3" y="108.9" width="10.2" height="0.5" rx="1" fill="#1a1a19" stroke="#199e70" stroke-width="1.5"/>
<line x1="785.1" y1="108.9" x2="785.1" y2="108.9" stroke="#199e70" stroke-width="1"/>
<rect x="780.0" y="108.9" width="10.2" height="0.5" rx="1" fill="#1a1a19" stroke="#199e70" stroke-width="1.5"/>
<rect x="0.5" y="0.5" width="879" height="439" rx="8" fill="none" stroke="rgba(255,255,255,0.10)"/>
</svg>
